<svg viewBox="0 0 1200 660.7742" xmlns="http://www.w3.org/2000/svg"><circle cx="266.3644" cy="321.1315" r="1.5904"/><path d="m423.5081 500.9782h134v8.3094h-134z" fill="#4285f4" stroke="#4285f4" stroke-linecap="round" stroke-linejoin="round"/><path d="m423.5081 525.0129h134v7.3215h-134z" fill="#d2e3fc" stroke="#d2e3fc" stroke-linecap="round" stroke-linejoin="round"/><path d="m423.5081 551.0853h42.2609v7.3215h-42.2609z" fill="#e8eaed" stroke="#e8eaed" stroke-linecap="round" stroke-linejoin="round"/><path d="m423.5081 576.1702h103.3669" fill="none" stroke="#bdc1c6" stroke-linecap="round" stroke-linejoin="round"/><path d="m608.5319 575.5706h103.3669" fill="none" stroke="#bdc1c6" stroke-linecap="round" stroke-linejoin="round"/><path d="m608.5319 598.4321h81.6055" fill="none" stroke="#bdc1c6" stroke-linecap="round" stroke-linejoin="round"/><path d="m793.1199 575.5706h103.3669" fill="none" stroke="#bdc1c6" stroke-linecap="round" stroke-linejoin="round"/><path d="m793.1199 598.4321h81.6055" fill="none" stroke="#bdc1c6" stroke-linecap="round" stroke-linejoin="round"/><path d="m976.5088 575.369h103.3669" fill="none" stroke="#bdc1c6" stroke-linecap="round" stroke-linejoin="round"/><path d="m976.5088 598.2304h81.6055" fill="none" stroke="#bdc1c6" stroke-linecap="round" stroke-linejoin="round"/><path d="m313.8616 156.9531h72v8h-72z" fill="#e8eaed"/><path d="m217.3087 225.0559h362.3314v7.8925h-362.3314z" fill="#e8eaed"/><path d="m422.491 156.9531h72v8h-72z" fill="#e8eaed"/><path d="m522.5081 155.935h72v8h-72z" fill="#e8eaed"/><path d="m630.4049 155.935h72v8h-72z" fill="#e8eaed"/><path d="m737.1921 155.935h72v8h-72z" fill="#e8eaed"/><path d="m1063.6585 155.0559h72v8h-72z" fill="#e8eaed"/><path d="m607.2065 501.4148h134v8.3094h-134z" fill="#4285f4" stroke="#4285f4" stroke-linecap="round" stroke-linejoin="round"/><path d="m607.2065 525.4495h134v7.3215h-134z" fill="#d2e3fc" stroke="#d2e3fc" stroke-linecap="round" stroke-linejoin="round"/><path d="m607.6219 551.5219h42.2609v7.3215h-42.2609z" fill="#e8eaed" stroke="#e8eaed" stroke-linecap="round" stroke-linejoin="round"/><path d="m793.1199 501.4148h134v8.3094h-134z" fill="#4285f4" stroke="#4285f4" stroke-linecap="round" stroke-linejoin="round"/><path d="m793.1199 525.4495h134v7.3215h-134z" fill="#d2e3fc" stroke="#d2e3fc" stroke-linecap="round" stroke-linejoin="round"/><path d="m793.1199 551.5219h42.2609v7.3215h-42.2609z" fill="#e8eaed" stroke="#e8eaed" stroke-linecap="round" stroke-linejoin="round"/><path d="m976.5088 501.4148h134v8.3094h-134z" fill="#4285f4" stroke="#4285f4" stroke-linecap="round" stroke-linejoin="round"/><path d="m976.5088 525.4495h134v7.3215h-134z" fill="#d2e3fc" stroke="#d2e3fc" stroke-linecap="round" stroke-linejoin="round"/><path d="m976.5088 551.5219h42.2609v7.3215h-42.2609z" fill="#e8eaed" stroke="#e8eaed" stroke-linecap="round" stroke-linejoin="round"/><path d="m229.9666 354.3651h150.6282c5.6567 0 10.2492 4.5925 10.2492 10.2492v118.0054h-171.1265v-118.0054c0-5.6567 4.5925-10.2492 10.2492-10.2492z" fill="#f1f3f4" stroke="#bdc1c6" stroke-linecap="round" stroke-linejoin="round" stroke-width=".5"/><path d="m0 0h1199.9424v660.7742h-1199.9424z" fill="none" stroke="#3c4043" stroke-linecap="round" stroke-linejoin="round"/><path d="m219.7622 438.5872h3.5817v-18.1404h12.1381v23.4961h2.1888v-28.5063h12.735v24.1871l2.9848.1728v-5.874h3.3827v-2.246l6.9644.3456v3.4553l33.6284.1727v-7.4289l5.1736.3456v-4.492h5.7705v3.2826h3.5817v10.7115l11.7401.3455v-15.3761l6.3675-.5183v-8.4656h9.7503v6.9107l2.7857.3455v-6.3923l14.1279.1727v13.9077h4.9746v2.8506l2.5868.1728v9.8476l3.7807-.3455v-6.9107h4.5767v-3.2825h1.7908v-11.2298l4.1787.1728v10.5387h3.3827v3.4553l8.9543.1728v48.0288h-171.1265z" fill="#fff"/><path d="m290.545 482.1343c1.2788-7.7436.2512-14.2579-.9969-17.9441-1.0277-3.0352-1.9906-4.196-1.9938-6.9782-.0068-6.06 4.5511-9.6591 2.9907-11.9627-1.1214-1.6555-3.8249-.3126-4.9845-1.9938-1.4114-2.0465 2.0888-4.7695 2.9907-10.9658.2678-1.8402.5696-5.7941-.9969-9.9689-1.3515-3.6017-2.6215-3.4449-2.9907-5.9814-.6801-4.6727 3.3366-7.2202 1.9938-9.9689-.9772-2.0004-3.2991-1.0492-4.9845-2.9907-2.4773-2.8537.3759-7.4005 1.9938-16.9472.9433-5.5664.971-7.914.9969-11.9627.0268-4.2016.5504.1291 0-5.9814-.2491-2.7653.1173-1.7486 0-4.9845-.3499-9.6504-.149-9.4705.9039-9.4705 1.9938 0 .2428-.0002 3.2334-.0002 1.0017 0 1.1077.0006 3.1015.0002 1.3198-.0002-.6388.6213-.2606 4.486.6528 6.6693 3.1793 6.5702 2.9907 11.9627-.1788 5.1096-2.516 7.165-.9969 10.9658.7015 1.7551 2.3383 4.1649 3.9876 3.9876.8535-.0918 1.9048-.8974 1.9938-1.9938.0921-1.1341-.899-1.9187-.9969-1.9938h-3.9876l3.9876-.9969c-.0578-.2264-.1088-.5076-.122-.8324-.0193-.4739.0485-.8725.122-1.1614-1.3292-.6646-2.6584-1.3292-3.9876-1.9938l4.9905.1023c.2363-.385.5249-.8069.8757-1.2443.367-.4576.7326-.8454 1.0708-1.1694l-3.9463-7.6576 6.9782 5.9814c.5742-.3038 1.2775-.6209 2.1029-.8858.6472-.2077 1.2482-.3444 1.7801-.4351.6994-3.215 1.3989-6.4299 2.0984-9.6449.4213 3.3073.8427 6.6145 1.264 9.9218.396.0525.907.1587 1.4724.3809.5206.2046.9384.4491 1.2512.6631 2.9907-1.9938 5.9814-3.9876 8.972-5.9814l-6.9782 7.9751c.2173.2714.4682.6389.6824 1.1063.1486.3242.2475.6267.3145.8875 2.6584-.3323 5.3168-.6646 7.9751-.9969-2.469 1.0036-4.938 2.0072-7.407 3.0108.1429.3297.2881.7565.3678 1.2668.04.256.0573.4935.061.7068 3.323.3323 6.6459.6646 9.9689.9969l-9.9689.9969c-1.2664 2.5521-1.7715 4.5727-1.9938 5.9814-.1361.8626-.2326 1.9164-.9969 2.9907-.8732 1.2273-1.7485 1.259-1.9938 1.9938-.4308 1.2905 1.6451 3.0634 3.9876 4.9845 7.0119 5.7507 8.0351 5.9605 8.972 7.9751.7095 1.5258.8054 3.3432.9969 6.9782.259 4.9151.6024 5.7542.9969 7.9751.8791 4.9497 1.3361 7.5224 2.5692 7.8685.921.2585 3.122-.4876 8.3966-10.8592l12.9596 4.9845-14.9534 26.9161h-3.9876v14.9534l2.9907 16.9472h-45.857z" fill="#81c995" stroke="#5f6368" stroke-linecap="round" stroke-linejoin="round" stroke-width=".75"/><path d="m302.5077 386.4327c.6646 1.6615 1.3292 3.323 1.9938 4.9845.1873.333 1.3906 2.3897 3.9876 2.9907 2.6586.6153 4.6816-.7803 4.9845-.9969" fill="#81c995" stroke="#5f6368" stroke-linecap="round" stroke-linejoin="round" stroke-width=".75"/><path d="m312.4766 415.3426c-6.3728 5.5708-12.9233 11.1436-19.6556 16.7072-1.7888 1.4783-3.5757 2.9438-5.3606 4.3966" fill="#81c995" stroke="#5f6368" stroke-linecap="round" stroke-linejoin="round" stroke-width=".75"/><path d="m308.489 427.3053c-5.7034 6.2331-8.4878 11.9201-9.9689 15.9503-1.3679 3.722-2.6983 8.954-4.9845 17.9441-.4243 1.6684-.7667 3.0505-.9969 3.9876" fill="#81c995" stroke="#5f6368" stroke-linecap="round" stroke-linejoin="round" stroke-width=".75"/><path d="m301.5108 481.1375c1.738-4.4951 4.0902-6.7465 5.9814-7.9751 2.2053-1.4327 3.6579-1.3927 4.9845-2.9907 2.4502-2.9516 1.2805-7.6489.9969-8.972-1.067-4.978-.7448-14.2294 4.9845-32.8974" fill="#81c995" stroke="#5f6368" stroke-linecap="round" stroke-linejoin="round" stroke-width=".75"/><path d="m295.5294 393.4109c-.3288.496-5.3952 7.9473-10.9658 6.9782-.6425-.1118-1.7635-.3068-1.9938-.9969-.6775-2.0305 6.999-6.4186 13.9565-9.9689" fill="#81c995" stroke="#5f6368" stroke-linecap="round" stroke-linejoin="round" stroke-width=".75"/><path d="m326.4331 424.3146c-.2656 3.6187-.2143 9.3904 1.9938 15.9503 1.4283 4.2432 3.3414 7.5756 4.9845 9.9689" fill="#81c995" stroke="#5f6368" stroke-linecap="round" stroke-linejoin="round" stroke-width=".75"/><path d="m301.5108 420.327c4.5631-2.8243 7.8037-5.7459 9.9689-7.9751 2.5266-2.6013 5.9476-6.1235 4.9845-7.9751-.5525-1.0623-2.5346-1.5491-3.9876-.9969-2.6067.9907-1.9731 4.7411-4.9845 7.9751-1.6327 1.7534-3.6097 2.5741-4.9845 2.9907" fill="#81c995" stroke="#5f6368" stroke-linecap="round" stroke-linejoin="round" stroke-width=".75"/><path d="m.7486 195.4696h1197.7514" fill="#e8eaed" stroke="#e8eaed" stroke-linecap="round" stroke-linejoin="round"/><path d="m962.4597 88.8228 13.1468 13.1468m0-13.1468-13.1468 13.1468" fill="none" stroke="#9aa0a6" stroke-linecap="round" stroke-linejoin="round"/><circle cx="1062.0874" cy="96.511" fill="#4285f4" r="3.5"/><path d="m1070.0874 92.4923v8c0 .2113-.0425.4112-.1025.6025-.1963.615-.6787 1.0975-1.2938 1.2938-.1912.0613-.3913.1025-.6025.1025h-9.7512l2 2h7.75c.5525 0 1.0788-.1125 1.5575-.3137.4788-.2025.91-.495 1.2712-.8575.1812-.1812.345-.3787.4888-.5925.2875-.425.495-.91.6012-1.43.0537-.26.0812-.53.0812-.8062v-6.4988l-.75-2.375-1.3525.2725c.06.1912.1025.3912.1025.6025z" fill="#ea4335"/><path d="m1054.0874 92.4923c0-.2113.0425-.4113.1025-.6025.1962-.615.6788-1.0975 1.2937-1.2937.1925-.0613.3925-.1038.6038-.1038h12c.2113 0 .4112.0425.6025.1025l.0225-1.4775-2.125-.625-2-2h-5l-2 2h-1.5c-2.2088 0-4 1.7913-4 4v4l2 2z" fill="#4285f4"/><path d="m1068.0874 88.4923h-1.5l2.1038 2.1038c.1537.0487.2987.1163.4338.1988.27.165.4963.3913.6612.6613.0825.135.15.28.1987.4337l2.1025 2.1025v-1.5c0-2.2087-1.7913-4-4-4z" fill="#34a853"/><path d="m1056.0874 104.4923h4.9862l-2-2h-2.9862c-1.1025 0-2-.8975-2-2v-2.9862l-2-2v4.9862c0 2.2087 1.7912 4 4 4z" fill="#fbbc04"/><path d="m1018.9611 98.3399c1.38 0 2.5-1.005 2.5-2.28v-5.385c0-1.275-1.115-2.31-2.5-2.31-1.38 0-2.5 1.03-2.495 2.31v5.385c-.005 1.275 1.115 2.28 2.495 2.28z" fill="#4285f4"/><path d="m1017.9661 100.3699h1.995v2.94h-1.995z" fill="#34a853"/><path d="m1015.2611 99.3299c-.95-.95-1.535-2.01-1.535-3.46h1.495c0 1.035.42 1.72 1.1 2.4v.225l-.86.835z" fill="#f4b400"/><path d="m1018.9711 99.3699c-.9948.0019-1.949-.3942-2.65-1.1l-1.06 1.06c.95.95 2.265 1.51 3.715 1.51 2.9 0 5.235-2.075 5.235-4.97h-1.495c-.005 2.07-1.675 3.5-3.745 3.5z" fill="#ea4335"/><path d="m204 96.1389c0-10.0346 10.1643-18.1693 22.7026-18.1693h888.5947c12.539 0 22.7026 8.1347 22.7026 18.1693s-10.1637 18.1693-22.7026 18.1693h-888.5947c-12.5382 0-22.7026-8.1346-22.7026-18.1693z" fill="none" stroke="#9aa0a6" stroke-linecap="round" stroke-linejoin="round" stroke-width=".5"/><path d="m414.2077 353.9073h151.1165c5.5219 0 10.005 4.4831 10.005 10.005v118.5573h-171.1265v-118.5573c0-5.5219 4.4831-10.005 10.005-10.005z" fill="#f1f3f4" stroke="#bdc1c6" stroke-linecap="round" stroke-linejoin="round" stroke-width=".5"/><path d="m598.8143 353.9073h151.1165c5.5219 0 10.005 4.4831 10.005 10.005v118.5573h-171.1265v-118.5573c0-5.5219 4.4831-10.005 10.005-10.005z" fill="#f1f3f4" stroke="#bdc1c6" stroke-linecap="round" stroke-linejoin="round" stroke-width=".5"/><path d="m783.1971 353.3908h151.1165c5.5219 0 10.005 4.4831 10.005 10.005v118.5573h-171.1265v-118.5573c0-5.5219 4.4831-10.005 10.005-10.005z" fill="#f1f3f4" stroke="#bdc1c6" stroke-linecap="round" stroke-linejoin="round" stroke-width=".5"/><path d="m967.6917 353.9073h151.1165c5.5219 0 10.005 4.4831 10.005 10.005v118.5573h-171.1265v-118.5573c0-5.5219 4.4831-10.005 10.005-10.005z" fill="#f1f3f4" stroke="#bdc1c6" stroke-linecap="round" stroke-linejoin="round" stroke-width=".5"/><path d="m1056.857 400.2844 1.7698-1.3453c-.4289-.5149-1.0791-.8177-1.7698-.8177-.6863 0-1.3365.3028-1.7654.8177zm28.2702 33.673v2.163c.8669 0 1.657-.4758 2.0362-1.2243.3748-.7483.2709-1.6352-.2662-2.2839l-1.77 1.3453zm-48.9665-8.6907-1.7698 1.3453c.4289.5149 1.0791.8177 1.7698.8177.6863 0 1.3409-.3028 1.7653-.8177zm-13.7207-16.5597 1.7653-1.3455c-.4289-.5191-1.079-.8174-1.7653-.8174-.6907 0-1.3409.2984-1.7698.8174zm-21.0671 25.2504-1.7653-1.341c-.5418.649-.6411 1.5356-.2663 2.2842.3748.7483 1.1648 1.2198 2.0316 1.2198zm41.8772 0v2.163c.8668 0 1.657-.4716 2.0318-1.2198.3792-.7485.2753-1.6352-.2619-2.2842l-1.7698 1.341zm0 0v-2.163c-.8668 0-1.657.4758-2.0362 1.2198-.3748.7485-.2709 1.6352.2663 2.2884l1.7698-1.3453zm11.8416-32.3278 27.8975 33.673 3.5352-2.6905-27.8975-33.673zm-17.1656 24.9824 20.7008-24.9824-3.5352-2.6905-20.7007 24.9821zm-17.2559-16.5597 13.7207 16.5597 3.5351-2.6908-13.7207-16.5597zm-17.3869 25.2504 20.922-25.2504-3.5351-2.6908-20.922 25.2548 3.5351 2.6863zm39.9668-3.2332h-41.8772v3.9845h41.8772zm-1.6579 2.9884h.0045l3.5351-2.6863-.0045-.0042zm43.5351-2.9884h-41.8772v3.9845h41.8772z" fill="#9aa0a6"/><path d="m872.3623 400.2844 1.7698-1.3453c-.4289-.5149-1.0791-.8177-1.7698-.8177-.6863 0-1.3365.3028-1.7654.8177zm28.2702 33.673v2.163c.8669 0 1.657-.4758 2.0362-1.2243.3748-.7483.2709-1.6352-.2662-2.2839l-1.77 1.3453zm-48.9665-8.6907-1.7698 1.3453c.4289.5149 1.0791.8177 1.7698.8177.6863 0 1.3409-.3028 1.7653-.8177zm-13.7207-16.5597 1.7653-1.3455c-.4289-.5191-1.079-.8174-1.7653-.8174-.6907 0-1.3409.2984-1.7698.8174zm-21.0671 25.2504-1.7653-1.341c-.5418.649-.6411 1.5356-.2663 2.2842.3748.7483 1.1648 1.2198 2.0316 1.2198zm41.8772 0v2.163c.8668 0 1.657-.4716 2.0318-1.2198.3792-.7485.2753-1.6352-.2619-2.2842l-1.7698 1.341zm0 0v-2.163c-.8668 0-1.657.4758-2.0362 1.2198-.3748.7485-.2709 1.6352.2663 2.2884l1.7698-1.3453zm11.8416-32.3278 27.8975 33.673 3.5352-2.6905-27.8975-33.673zm-17.1656 24.9824 20.7008-24.9824-3.5352-2.6905-20.7007 24.9821zm-17.2559-16.5597 13.7207 16.5597 3.5351-2.6908-13.7207-16.5597zm-17.3869 25.2504 20.922-25.2504-3.5351-2.6908-20.922 25.2548 3.5351 2.6863zm39.9668-3.2332h-41.8772v3.9845h41.8772zm-1.6579 2.9884h.0045l3.5351-2.6863-.0045-.0042zm43.5351-2.9884h-41.8772v3.9845h41.8772z" fill="#9aa0a6"/><path d="m687.8676 400.2844 1.7698-1.3453c-.4289-.5149-1.0791-.8177-1.7698-.8177-.6863 0-1.3365.3028-1.7654.8177zm28.2702 33.673v2.163c.8669 0 1.657-.4758 2.0362-1.2243.3748-.7483.2709-1.6352-.2662-2.2839l-1.77 1.3453zm-48.9665-8.6907-1.7698 1.3453c.4289.5149 1.0791.8177 1.7698.8177.6863 0 1.3409-.3028 1.7653-.8177zm-13.7207-16.5597 1.7653-1.3455c-.4289-.5191-1.079-.8174-1.7653-.8174-.6907 0-1.3409.2984-1.7698.8174zm-21.0671 25.2504-1.7653-1.341c-.5418.649-.6411 1.5356-.2663 2.2842.3748.7483 1.1648 1.2198 2.0316 1.2198zm41.8772 0v2.163c.8668 0 1.657-.4716 2.0318-1.2198.3792-.7485.2753-1.6352-.2619-2.2842l-1.7698 1.341zm0 0v-2.163c-.8668 0-1.657.4758-2.0362 1.2198-.3748.7485-.2709 1.6352.2663 2.2884l1.7698-1.3453zm11.8416-32.3278 27.8975 33.673 3.5352-2.6905-27.8975-33.673zm-17.1656 24.9824 20.7008-24.9824-3.5352-2.6905-20.7007 24.9821zm-17.2559-16.5597 13.7207 16.5597 3.5351-2.6908-13.7207-16.5597zm-17.3869 25.2504 20.922-25.2504-3.5351-2.6908-20.922 25.2548 3.5351 2.6863zm39.9668-3.2332h-41.8772v3.9845h41.8772zm-1.6579 2.9884h.0045l3.5351-2.6863-.0045-.0042zm43.5351-2.9884h-41.8772v3.9845h41.8772z" fill="#9aa0a6"/><path d="m503.3713 400.2844 1.7698-1.3453c-.4289-.5149-1.0791-.8177-1.7698-.8177-.6863 0-1.3365.3028-1.7654.8177zm28.2702 33.673v2.163c.8669 0 1.657-.4758 2.0362-1.2243.3748-.7483.2709-1.6352-.2662-2.2839l-1.77 1.3453zm-48.9665-8.6907-1.7698 1.3453c.4289.5149 1.0791.8177 1.7698.8177.6863 0 1.3409-.3028 1.7653-.8177zm-13.7207-16.5597 1.7653-1.3455c-.4289-.5191-1.079-.8174-1.7653-.8174-.6907 0-1.3409.2984-1.7698.8174zm-21.0671 25.2504-1.7653-1.341c-.5418.649-.6411 1.5356-.2663 2.2842.3748.7483 1.1648 1.2198 2.0316 1.2198zm41.8772 0v2.163c.8668 0 1.657-.4716 2.0318-1.2198.3792-.7485.2753-1.6352-.2619-2.2842l-1.7698 1.341zm0 0v-2.163c-.8668 0-1.657.4758-2.0362 1.2198-.3748.7485-.2709 1.6352.2663 2.2884l1.7698-1.3453zm11.8416-32.3278 27.8975 33.673 3.5352-2.6905-27.8975-33.673zm-17.1656 24.9824 20.7008-24.9824-3.5352-2.6905-20.7007 24.9821zm-17.2559-16.5597 13.7207 16.5597 3.5351-2.6908-13.7207-16.5597zm-17.3869 25.2504 20.922-25.2504-3.5351-2.6908-20.922 25.2548 3.5351 2.6863zm39.9668-3.2332h-41.8772v3.9845h41.8772zm-1.6579 2.9884h.0045l3.5351-2.6863-.0045-.0042zm43.5351-2.9884h-41.8772v3.9845h41.8772z" fill="#9aa0a6"/><path d="m220 482.4696h170.5" fill="none" stroke="#bdc1c6" stroke-linecap="round" stroke-linejoin="round" stroke-width=".5"/><path d="m995.5 84.4696v24" fill="none" stroke="#e8eaed" stroke-linecap="round" stroke-linejoin="round"/><path d="m231.4254 167.9177 4.0453 4.0519" fill="none" stroke="#4285f5" stroke-linecap="square" stroke-linejoin="round" stroke-width="2"/><path d="m227.4481 169.1374c-3.3882 0-6.1349-2.7467-6.1349-6.1349s2.7467-6.1349 6.1349-6.1349 6.1349 2.7467 6.1349 6.1349" fill="none" stroke="#bdc1c6" stroke-linejoin="round" stroke-width="2"/><path d="m227.4481 169.1374c-3.3882 0-6.1349-2.7467-6.1349-6.1349" fill="none" stroke="#fbbd04" stroke-linejoin="round" stroke-width="2"/><path d="m227.4481 156.8675c3.3882 0 6.1349 2.7467 6.1349 6.1349" fill="none" stroke="#34a854" stroke-linejoin="round" stroke-width="2"/><path d="m233.583 163.0024c0 3.3882-2.7467 6.1349-6.1349 6.1349" fill="none" stroke="#4285f5" stroke-linejoin="round" stroke-width="2"/><path d="m221.3132 163.0024c0-3.3882 2.7467-6.1349 6.1349-6.1349" fill="none" stroke="#ea4336" stroke-linejoin="round" stroke-width="2"/><path d="m219.7622 192.6547h62.2378v2.3149h-62.2378z" fill="#4285f4"/><circle cx="1108.5621" cy="321.1315" fill="#9aa0a6" r="9.0675"/><path d="m1107.6743 316.7183h1.7754v1.7586h-1.7754z" fill="#f8f9fa"/><path d="m1107.6743 320.2523h1.7754v5.2925h-1.7754z" fill="#f8f9fa"/><path d="m1111 103.2364-5.9133-5.9133c.7946-1.1042 1.2797-2.4355 1.2797-3.8906 0-3.7048-3.0031-6.7079-6.7079-6.7079s-6.7079 3.0031-6.7079 6.7079 3.0031 6.7079 6.7079 6.7079c1.4551 0 2.7864-.485 3.8906-1.2797l5.9133 5.9133 1.5377-1.5377zm-15.9854-9.8038c0-2.5696 2.0743-4.6439 4.6439-4.6439s4.6439 2.0743 4.6439 4.6439-2.0743 4.6439-4.6439 4.6439-4.6439-2.0743-4.6439-4.6439z" fill="#4285f4"/><path d="m280.5256 601.7922 3.605 2.1799-.957-4.1001 3.185-2.76-4.194-.3599-1.639-3.8601-1.639 3.8601-4.194.3599 3.185 2.76-.957 4.1001z" fill="#fbbc04"/><path d="m462.3696 601.7922 3.605 2.1799-.957-4.1001 3.185-2.76-4.194-.3599-1.639-3.8601-1.639 3.8601-4.194.3599 3.185 2.76-.957 4.1001z" fill="#fbbc04"/><rect fill="none" height="268.7773" rx="10.2492" stroke="#bdc1c6" stroke-linecap="round" stroke-linejoin="round" stroke-width=".5" width="171.1265" x="219.7622" y="353.9073"/><rect fill="none" height="268.7773" rx="10.2492" stroke="#bdc1c6" stroke-linecap="round" stroke-linejoin="round" stroke-width=".5" width="171.1265" x="404.2027" y="353.9073"/><rect fill="none" height="268.7773" rx="10.2492" stroke="#bdc1c6" stroke-linecap="round" stroke-linejoin="round" stroke-width=".5" width="171.1265" x="588.6432" y="353.9073"/><rect fill="none" height="268.7773" rx="10.2492" stroke="#bdc1c6" stroke-linecap="round" stroke-linejoin="round" stroke-width=".5" width="171.1265" x="773.0837" y="353.3908"/><rect fill="none" height="268.7773" rx="10.2492" stroke="#bdc1c6" stroke-linecap="round" stroke-linejoin="round" stroke-width=".5" width="171.1265" x="957.5242" y="353.9073"/><ellipse cx="1127.281" cy="488.2025" fill="#fff" rx="18.719" ry="18.7672" stroke="#636669" stroke-linecap="round" stroke-linejoin="round" stroke-width=".5"/><path d="m1124.7874 482.127 6.0598 6.0755-6.0598 6.0754" fill="#fff" stroke="#636669" stroke-linecap="round" stroke-linejoin="round" stroke-width=".5"/><path d="m0 49.9288h1199.9424" fill="none" stroke="#9aa0a6" stroke-linecap="round" stroke-linejoin="round" stroke-width=".5"/><circle cx="26.4945" cy="23.7983" fill="none" r="6.7013" stroke="#9aa0a6" stroke-linecap="round" stroke-linejoin="round" stroke-width=".5"/><circle cx="49.6767" cy="23.7983" fill="none" r="6.7013" stroke="#9aa0a6" stroke-linecap="round" stroke-linejoin="round" stroke-width=".5"/><path d="m54.7875 94.6935v-4.3129h14.4365c.1474.7594.2331 1.6647.2331 2.6437 0 3.2332-.8857 7.2378-3.7339 10.086-2.7715 2.8873-6.3145 4.4272-11.0109 4.4272-8.701.0015-16.0155-7.0829-16.0155-15.7839s7.3145-15.7839 16.0155-15.7839c4.8122 0 8.2393 1.8858 10.8184 4.3505l-3.0407 3.0407c-1.8482-1.7324-4.3505-3.0798-7.7762-3.0798-6.3521 0-11.3191 5.1205-11.3191 11.4725s4.9671 11.4725 11.3191 11.4725c4.1189 0 6.4679-1.6557 7.9687-3.1565 1.2241-1.2226 2.0286-2.9775 2.3414-5.3776z" fill="#4285f4"/><path d="m91.4563 97.3748c0 5.8513-4.5806 10.1642-10.2018 10.1642s-10.2018-4.3114-10.2018-10.1642c0-5.8904 4.5806-10.1642 10.2018-10.1642 5.6212.0015 10.2018 4.2738 10.2018 10.1642zm-4.4648 0c0-3.6573-2.6557-6.1596-5.7355-6.1596s-5.737 2.5023-5.737 6.1596c0 3.6182 2.6557 6.1596 5.737 6.1596 3.0783 0 5.7355-2.5399 5.7355-6.1596z" fill="#e94235"/><path d="m113.7126 97.3748c0 5.8513-4.5806 10.1642-10.2018 10.1642s-10.2018-4.3114-10.2018-10.1642c0-5.8904 4.5806-10.1642 10.2018-10.1642 5.6212.0015 10.2018 4.2738 10.2018 10.1642zm-4.4648 0c0-3.6573-2.6557-6.1596-5.7355-6.1596s-5.737 2.5023-5.737 6.1596c0 3.6182 2.6557 6.1596 5.737 6.1596 3.0783 0 5.7355-2.5399 5.7355-6.1596z" fill="#fabb05"/><path d="m135.0456 87.8271v18.2487c0 7.507-4.4272 10.5868-9.6635 10.5868-4.928 0-7.892-3.3114-9.0093-6.0062l3.8888-1.6166c.6933 1.6557 2.3865 3.6197 5.1205 3.6197 3.349 0 5.4287-2.0798 5.4287-5.9671v-1.4632h-.1534c-1.0015 1.2316-2.9264 2.3098-5.352 2.3098-5.0814 0-9.7401-4.4272-9.7401-10.1251 0-5.737 4.6588-10.2018 9.7401-10.2018 2.4256 0 4.3505 1.0782 5.352 2.2722h.1534v-1.6572h4.2347zm-3.9264 9.5868c0-3.5806-2.3865-6.1987-5.4287-6.1987-3.0798 0-5.6588 2.6181-5.6588 6.1987 0 3.5415 2.579 6.122 5.6588 6.122 3.0407-.0015 5.4287-2.5805 5.4287-6.122z" fill="#4285f4"/><path d="m142.6097 77.1471v29.7753h-4.4663v-29.7753z" fill="#34a853"/><path d="m159.8553 100.7252 3.4648 2.3098c-1.1173 1.6557-3.8121 4.5039-8.4694 4.5039-5.7746 0-10.086-4.4663-10.086-10.1642 0-6.0453 4.3505-10.1642 9.5868-10.1642 5.2738 0 7.8544 4.1971 8.701 6.4679l.4617 1.1549-13.5899 5.6212c1.0391 2.0407 2.6572 3.0798 4.928 3.0798 2.2692 0 3.8482-1.1158 5.0032-2.8091zm-10.665-3.6588 9.086-3.773c-.5008-1.2707-2.0016-2.1565-3.7731-2.1565-2.2707.0015-5.4272 2.0031-5.3129 5.9295z" fill="#e94235"/><path d="m365.3274 391.3863 2.2472 4.2959 5.0562 1.0739-3.9327 3.2219 1.1237 5.3698-4.4944-2.6849-5.0562 2.6849 1.1237-5.3698-3.9327-3.2219 5.0562-1.0739z" fill="#fff"/><path d="m345.0989 375.6375 1.6476 3.1497 3.7071.7874-2.8834 2.3623.8239 3.9371-3.2952-1.9685-3.7071 1.9685.8239-3.9371-2.8834-2.3623 3.7071-.7874z" fill="#fff"/><path d="m376.2372 364.052 1.6476 3.1497 3.7071.7874-2.8834 2.3623.8239 3.9371-3.2952-1.9685-3.7071 1.9685.8239-3.9371-2.8834-2.3623 3.7071-.7874z" fill="#fff"/><path d="m241.4518 365.9643 2.4444 4.6729 5.5 1.1682-4.2779 3.5047 1.2223 5.8411-4.8888-2.9206-5.5 2.9206 1.2223-5.8411-4.2779-3.5047 5.5-1.1682z" fill="#fff"/><path d="m260.0706 392.116 1.5468 2.957 3.4804.7392-2.707 2.2178.7735 3.6963-3.0937-1.8481-3.4804 1.8481.7735-3.6963-2.707-2.2178 3.4804-.7392 1.9336-2.957z" fill="#fff"/><path d="m229.9743 354.1448h150.6282c5.6567 0 10.2492 4.5925 10.2492 10.2492v118.0054h-171.1265v-118.0054c0-5.6567 4.5925-10.2492 10.2492-10.2492z" fill="none" stroke="#bdc1c6" stroke-linecap="round" stroke-linejoin="round" stroke-width=".5"/><path d="m243.6665 599.1571-1.373-.3516.6772-6.7266h6.9302v1.5859h-5.4736l-.4082 3.6738c.2471-.1416.561-.2744.9419-.3984.3799-.124.8174-.1855 1.3125-.1855.6245 0 1.1841.1064 1.6792.3203.4946.2129.917.5176 1.2661.9141.3496.3955.6172.8711.8027 1.4277s.2783 1.1787.2783 1.8652c0 .6494-.0879 1.2461-.2646 1.791-.1758.5439-.4404 1.0186-.793 1.4238s-.7964.7188-1.3311.9414c-.5352.2227-1.1646.334-1.8882.334-.5444 0-1.0591-.0762-1.5444-.2275-.4858-.1514-.9189-.3828-1.2988-.6953-.3809-.3125-.6899-.7021-.9277-1.1689-.2383-.4668-.3887-1.0156-.4502-1.6465h1.6328c.0742.5068.2227.9336.4453 1.2793.2227.3467.5146.6084.877.7842.3613.1768.7837.2646 1.2661.2646.4082 0 .77-.0713 1.0854-.2129.3154-.1426.5811-.3467.7979-.6133.2163-.2656.3818-.5869.4961-.9648.1147-.377.1719-.8008.1719-1.2705 0-.4268-.0591-.8223-.1763-1.1875-.1177-.3652-.2925-.6836-.5239-.9561-.2324-.2715-.5151-.4834-.8491-.6348s-.7178-.2275-1.1504-.2275c-.5752 0-1.0098.0771-1.3032.2314-.2939.1553-.5957.3652-.9048.6309z" fill="#9aa0a6"/><path d="m252.3872 604.6776c0-.291.0913-.5361.2734-.7373.1826-.2012.4468-.3018.7935-.3018.3462 0 .6108.1006.7935.3018.1821.2012.2734.4463.2734.7373 0 .2842-.0913.5254-.2734.7236-.1826.1982-.4473.2969-.7935.2969-.3467 0-.6108-.0986-.7935-.2969-.1821-.1982-.2734-.4395-.2734-.7236z" fill="#9aa0a6"/><path d="m265.6631 597.7567v2.0596c0 1.1074-.0991 2.041-.2969 2.8018-.1982.7607-.4824 1.373-.8535 1.8369s-.8179.7998-1.3403 1.0068c-.5229.207-1.1123.3105-1.7676.3105-.5195 0-.999-.0645-1.438-.1953-.4395-.1289-.8335-.3379-1.1831-.626-.3491-.2871-.6479-.6631-.895-1.127-.2476-.4639-.436-1.0264-.5659-1.6885s-.1948-1.4346-.1948-2.3193v-2.0596c0-1.1074.1006-2.0352.3013-2.7832.2012-.748.4873-1.3496.8584-1.8047.3711-.4541.8179-.7803 1.3408-.9785.5225-.1982 1.1084-.2969 1.7578-.2969.5254 0 1.0098.0635 1.4521.1904.4419.127.8359.3281 1.1826.6025.3462.2754.6416.6406.8857 1.0947.2446.4551.4316 1.0098.5615 1.665.1299.6562.1948 1.4258.1948 2.3105zm-1.7256 2.3379v-2.625c0-.6064-.0356-1.1396-.1069-1.6006-.0708-.4609-.1748-.8555-.3105-1.1826-.1362-.3281-.3076-.5938-.5146-.7988-.2075-.2031-.4453-.3535-.7148-.4492-.2686-.0957-.5703-.1445-.9043-.1445-.4082 0-.77.0762-1.0854.2275-.3154.1523-.5796.3916-.7935.7197-.2129.3271-.3755.7568-.4868 1.2891s-.167 1.1777-.167 1.9395v2.625c0 .6064.0356 1.1406.1069 1.6055.0708.4629.1772.8643.3198 1.2012.1421.3369.3154.6133.5195.8301s.4409.376.7095.4775c.2695.1025.5674.1533.8955.1533.4204 0 .7886-.0801 1.104-.2412s.5796-.4131.7935-.7559c.2129-.3438.3721-.7852.4775-1.3271.105-.541.1577-1.1885.1577-1.9434z" fill="#9aa0a6"/><path d="m291.5469 600.1874v-.0928c0-1.3486.1514-2.5684.4546-3.6602.3027-1.0908.6895-2.0488 1.1597-2.8711.4697-.8223.9648-1.5039 1.4844-2.0459.5195-.541.9985-.9326 1.438-1.1729l.3618 1.1309c-.3652.2793-.7344.6621-1.1084 1.1504-.3745.4893-.7178 1.0889-1.0303 1.8008-.312.7109-.5645 1.5361-.7559 2.4766-.1919.9404-.2876 1.998-.2876 3.1729v.1299c0 1.1748.0957 2.2344.2876 3.1777.1914.9434.4438 1.7734.7559 2.4902.3125.7178.6558 1.3281 1.0303 1.833.374.5039.7432.9043 1.1084 1.2012l-.3618 1.0391c-.4395-.2412-.9185-.6328-1.438-1.1738s-1.0146-1.2217-1.4844-2.041c-.4702-.8193-.8569-1.7764-1.1597-2.8711-.3032-1.0947-.4546-2.3193-.4546-3.6738z" fill="#9aa0a6"/><path d="m303.5703 592.0048v13.582h-1.7163v-11.4395l-3.4604 1.2617v-1.5488l4.9077-1.8555h.269z" fill="#9aa0a6"/><path d="m317.0874 597.7567v2.0596c0 1.1074-.0991 2.041-.2969 2.8018-.1982.7607-.4824 1.373-.8535 1.8369s-.8179.7998-1.3403 1.0068c-.5229.207-1.1123.3105-1.7676.3105-.5195 0-.999-.0645-1.438-.1953-.4395-.1289-.8335-.3379-1.1831-.626-.3491-.2871-.6479-.6631-.895-1.127-.2476-.4639-.436-1.0264-.5659-1.6885s-.1948-1.4346-.1948-2.3193v-2.0596c0-1.1074.1006-2.0352.3013-2.7832.2012-.748.4873-1.3496.8584-1.8047.3711-.4541.8179-.7803 1.3408-.9785.5225-.1982 1.1084-.2969 1.7578-.2969.5254 0 1.0098.0635 1.4521.1904.4419.127.8359.3281 1.1826.6025.3462.2754.6416.6406.8857 1.0947.2446.4551.4316 1.0098.5615 1.665.1299.6562.1948 1.4258.1948 2.3105zm-1.7256 2.3379v-2.625c0-.6064-.0356-1.1396-.1069-1.6006-.0708-.4609-.1748-.8555-.3105-1.1826-.1362-.3281-.3076-.5938-.5146-.7988-.2075-.2031-.4453-.3535-.7148-.4492-.2686-.0957-.5703-.1445-.9043-.1445-.4082 0-.77.0762-1.0854.2275-.3154.1523-.5796.3916-.7935.7197-.2129.3271-.3755.7568-.4868 1.2891s-.167 1.1777-.167 1.9395v2.625c0 .6064.0356 1.1406.1069 1.6055.0708.4629.1772.8643.3198 1.2012.1421.3369.3154.6133.5195.8301s.4409.376.7095.4775c.2695.1025.5674.1533.8955.1533.4204 0 .7886-.0801 1.104-.2412s.5796-.4131.7935-.7559c.2129-.3438.3721-.7852.4775-1.3271.105-.541.1577-1.1885.1577-1.9434z" fill="#9aa0a6"/><path d="m327.7656 597.7567v2.0596c0 1.1074-.0991 2.041-.2969 2.8018-.1982.7607-.4824 1.373-.8535 1.8369s-.8179.7998-1.3403 1.0068c-.5229.207-1.1123.3105-1.7676.3105-.5195 0-.999-.0645-1.438-.1953-.4395-.1289-.8335-.3379-1.1831-.626-.3491-.2871-.6479-.6631-.895-1.127-.2476-.4639-.436-1.0264-.5659-1.6885s-.1948-1.4346-.1948-2.3193v-2.0596c0-1.1074.1006-2.0352.3013-2.7832.2012-.748.4873-1.3496.8584-1.8047.3711-.4541.8179-.7803 1.3408-.9785.5225-.1982 1.1084-.2969 1.7578-.2969.5254 0 1.0098.0635 1.4521.1904.4419.127.8359.3281 1.1826.6025.3462.2754.6416.6406.8857 1.0947.2446.4551.4316 1.0098.5615 1.665.1299.6562.1948 1.4258.1948 2.3105zm-1.7256 2.3379v-2.625c0-.6064-.0356-1.1396-.1069-1.6006-.0708-.4609-.1748-.8555-.3105-1.1826-.1362-.3281-.3076-.5938-.5146-.7988-.2075-.2031-.4453-.3535-.7148-.4492-.2686-.0957-.5703-.1445-.9043-.1445-.4082 0-.77.0762-1.0854.2275-.3154.1523-.5796.3916-.7935.7197-.2129.3271-.3755.7568-.4868 1.2891s-.167 1.1777-.167 1.9395v2.625c0 .6064.0356 1.1406.1069 1.6055.0708.4629.1772.8643.3198 1.2012.1421.3369.3154.6133.5195.8301s.4409.376.7095.4775c.2695.1025.5674.1533.8955.1533.4204 0 .7886-.0801 1.104-.2412s.5796-.4131.7935-.7559c.2129-.3438.3721-.7852.4775-1.3271.105-.541.1577-1.1885.1577-1.9434z" fill="#9aa0a6"/><path d="m334.1021 600.0946v.0928c0 1.3545-.1519 2.5791-.4546 3.6738-.3032 1.0947-.6899 2.0518-1.1597 2.8711-.4702.8193-.9648 1.5-1.4844 2.041s-.999.9326-1.438 1.1738l-.3618-1.0391c.3647-.2783.7329-.667 1.104-1.1641.3711-.498.7144-1.1104 1.0298-1.8369s.5688-1.5645.7607-2.5146c.1914-.9492.2876-2.0117.2876-3.1865v-.1299c0-1.1748-.1021-2.2373-.3062-3.1865s-.4683-1.7861-.7935-2.5098c-.3242-.7236-.6709-1.334-1.0391-1.832-.3677-.498-.7158-.8828-1.0435-1.1553l.3618-1.0479c.439.2402.9185.6318 1.438 1.1729.5195.542 1.0142 1.2236 1.4844 2.0459.4697.8223.8564 1.7803 1.1597 2.8711.3027 1.0918.4546 2.3115.4546 3.6602z" fill="#9aa0a6"/><path d="m433.1538 601.0409v1.4102h-9.7598v-1.0107l6.0488-9.3613h1.4009l-1.5029 2.709-3.9985 6.2529h7.8115zm-1.8833-8.9619v13.5078h-1.7163v-13.5078z" fill="#9aa0a6"/><path d="m434.9165 604.6776c0-.291.0913-.5361.2734-.7373.1826-.2012.4468-.3018.7935-.3018.3462 0 .6108.1006.7935.3018.1821.2012.2734.4463.2734.7373 0 .2842-.0913.5254-.2734.7236-.1826.1982-.4473.2969-.7935.2969-.3467 0-.6108-.0986-.7935-.2969-.1821-.1982-.2734-.4395-.2734-.7236z" fill="#9aa0a6"/><path d="m441.8838 599.1571-1.373-.3516.6772-6.7266h6.9302v1.5859h-5.4736l-.4082 3.6738c.2471-.1416.561-.2744.9419-.3984.3799-.124.8174-.1855 1.3125-.1855.6245 0 1.1841.1064 1.6792.3203.4946.2129.917.5176 1.2661.9141.3496.3955.6172.8711.8027 1.4277s.2783 1.1787.2783 1.8652c0 .6494-.0879 1.2461-.2646 1.791-.1758.5439-.4404 1.0186-.793 1.4238s-.7964.7188-1.3311.9414c-.5352.2227-1.1646.334-1.8882.334-.5444 0-1.0591-.0762-1.5444-.2275-.4858-.1514-.9189-.3828-1.2988-.6953-.3809-.3125-.6899-.7021-.9277-1.1689-.2383-.4668-.3887-1.0156-.4502-1.6465h1.6328c.0742.5068.2227.9336.4453 1.2793.2227.3467.5146.6084.877.7842.3613.1768.7837.2646 1.2661.2646.4082 0 .77-.0713 1.0854-.2129.3154-.1426.5811-.3467.7979-.6133.2163-.2656.3818-.5869.4961-.9648.1147-.377.1719-.8008.1719-1.2705 0-.4268-.0591-.8223-.1763-1.1875-.1177-.3652-.2925-.6836-.5239-.9561-.2324-.2715-.5151-.4834-.8491-.6348s-.7178-.2275-1.1504-.2275c-.5752 0-1.0098.0771-1.3032.2314-.2939.1553-.5957.3652-.9048.6309z" fill="#9aa0a6"/><path d="m474.0762 600.1874v-.0928c0-1.3486.1514-2.5684.4546-3.6602.3027-1.0908.6895-2.0488 1.1597-2.8711.4697-.8223.9648-1.5039 1.4844-2.0459.5195-.541.9985-.9326 1.438-1.1729l.3618 1.1309c-.3652.2793-.7344.6621-1.1084 1.1504-.3745.4893-.7178 1.0889-1.0303 1.8008-.312.7109-.5645 1.5361-.7559 2.4766-.1919.9404-.2876 1.998-.2876 3.1729v.1299c0 1.1748.0957 2.2344.2876 3.1777.1914.9434.4438 1.7734.7559 2.4902.3125.7178.6558 1.3281 1.0303 1.833.374.5039.7432.9043 1.1084 1.2012l-.3618 1.0391c-.4395-.2412-.9185-.6328-1.438-1.1738s-1.0146-1.2217-1.4844-2.041c-.4702-.8193-.8569-1.7764-1.1597-2.8711-.3032-1.0947-.4546-2.3193-.4546-3.6738z" fill="#9aa0a6"/><path d="m482.6299 599.1571-1.373-.3516.6772-6.7266h6.9302v1.5859h-5.4736l-.4082 3.6738c.2471-.1416.561-.2744.9419-.3984.3799-.124.8174-.1855 1.3125-.1855.6245 0 1.1841.1064 1.6792.3203.4946.2129.917.5176 1.2661.9141.3496.3955.6172.8711.8027 1.4277s.2783 1.1787.2783 1.8652c0 .6494-.0879 1.2461-.2646 1.791-.1758.5439-.4404 1.0186-.793 1.4238s-.7964.7188-1.3311.9414c-.5352.2227-1.1646.334-1.8882.334-.5444 0-1.0591-.0762-1.5444-.2275-.4858-.1514-.9189-.3828-1.2988-.6953-.3809-.3125-.6899-.7021-.9277-1.1689-.2383-.4668-.3887-1.0156-.4502-1.6465h1.6328c.0742.5068.2227.9336.4453 1.2793.2227.3467.5146.6084.877.7842.3613.1768.7837.2646 1.2661.2646.4082 0 .77-.0713 1.0854-.2129.3154-.1426.5811-.3467.7979-.6133.2163-.2656.3818-.5869.4961-.9648.1147-.377.1719-.8008.1719-1.2705 0-.4268-.0591-.8223-.1763-1.1875-.1177-.3652-.2925-.6836-.5239-.9561-.2324-.2715-.5151-.4834-.8491-.6348s-.7178-.2275-1.1504-.2275c-.5752 0-1.0098.0771-1.3032.2314-.2939.1553-.5957.3652-.9048.6309z" fill="#9aa0a6"/><path d="m493.3081 599.1571-1.373-.3516.6772-6.7266h6.9302v1.5859h-5.4736l-.4082 3.6738c.2471-.1416.561-.2744.9419-.3984.3799-.124.8174-.1855 1.3125-.1855.6245 0 1.1841.1064 1.6792.3203.4946.2129.917.5176 1.2661.9141.3496.3955.6172.8711.8027 1.4277s.2783 1.1787.2783 1.8652c0 .6494-.0879 1.2461-.2646 1.791-.1758.5439-.4404 1.0186-.793 1.4238s-.7964.7188-1.3311.9414c-.5352.2227-1.1646.334-1.8882.334-.5444 0-1.0591-.0762-1.5444-.2275-.4858-.1514-.9189-.3828-1.2988-.6953-.3809-.3125-.6899-.7021-.9277-1.1689-.2383-.4668-.3887-1.0156-.4502-1.6465h1.6328c.0742.5068.2227.9336.4453 1.2793.2227.3467.5146.6084.877.7842.3613.1768.7837.2646 1.2661.2646.4082 0 .77-.0713 1.0854-.2129.3154-.1426.5811-.3467.7979-.6133.2163-.2656.3818-.5869.4961-.9648.1147-.377.1719-.8008.1719-1.2705 0-.4268-.0591-.8223-.1763-1.1875-.1177-.3652-.2925-.6836-.5239-.9561-.2324-.2715-.5151-.4834-.8491-.6348s-.7178-.2275-1.1504-.2275c-.5752 0-1.0098.0771-1.3032.2314-.2939.1553-.5957.3652-.9048.6309z" fill="#9aa0a6"/><path d="m505.9531 600.0946v.0928c0 1.3545-.1519 2.5791-.4546 3.6738-.3032 1.0947-.6899 2.0518-1.1597 2.8711-.4702.8193-.9648 1.5-1.4844 2.041s-.999.9326-1.438 1.1738l-.3618-1.0391c.3647-.2783.7329-.667 1.104-1.1641.3711-.498.7144-1.1104 1.0298-1.8369s.5688-1.5645.7607-2.5146c.1914-.9492.2876-2.0117.2876-3.1865v-.1299c0-1.1748-.1021-2.2373-.3062-3.1865s-.4683-1.7861-.7935-2.5098c-.3242-.7236-.6709-1.334-1.0391-1.832-.3677-.498-.7158-.8828-1.0435-1.1553l.3618-1.0479c.439.2402.9185.6318 1.438 1.1729.5195.542 1.0142 1.2236 1.4844 2.0459.4697.8223.8564 1.7803 1.1597 2.8711.3027 1.0918.4546 2.3115.4546 3.6602z" fill="#9aa0a6"/><path d="m247.6167 556.5341c0-.3594-.0728-.6729-.2183-.9424-.145-.2686-.3818-.5127-.7095-.7324-.3281-.2197-.7671-.4248-1.3174-.6172-.792-.2783-1.4829-.5928-2.0737-.9414-.5903-.3496-1.0479-.7822-1.373-1.2988-.3242-.5166-.4868-1.1611-.4868-1.9346 0-.7607.1748-1.4199.5239-1.9766.3496-.5566.8364-.9863 1.4614-1.2891.6245-.3027 1.3545-.4551 2.1895-.4551.6431 0 1.2231.0967 1.7397.2881.5161.1924.9565.4736 1.3218.8447.3647.3711.645.8262.8394 1.3682.1953.541.2925 1.1611.2925 1.8604h-2.2266c0-.3965-.0449-.75-.1343-1.0625-.0898-.3125-.2217-.5781-.3945-.7979-.1733-.2197-.3818-.3877-.626-.5059-.2446-.1172-.5215-.1768-.8306-.1768-.4395 0-.8013.082-1.0854.2461-.2847.1641-.4932.3887-.626.6729-.1333.2842-.1997.6094-.1997.9736 0 .3535.0679.6621.2041.9277.1357.2666.3696.5059.7007.7197.3306.2129.7866.4287 1.3682.6445.7979.2842 1.4893.6016 2.0732.9512.585.3486 1.0361.7793 1.3545 1.2891.3188.5107.478 1.1523.478 1.9248 0 .7988-.1841 1.4756-.5522 2.0322-.3677.5566-.8809.9785-1.54 1.2666-.6582.2871-1.4238.4316-2.2959.4316-.5508 0-1.0962-.0732-1.6377-.2188-.541-.1445-1.0312-.3848-1.4702-.7188-.4395-.334-.7886-.7773-1.0483-1.3311s-.3896-1.2324-.3896-2.0361h2.2451c0 .4824.0649.8848.1948 1.2051.1299.3223.3062.5762.5288.7617s.4717.3184.7471.3984c.2749.0801.5518.1211.8301.1211.4639 0 .855-.0791 1.1738-.2373.3184-.1572.5596-.3799.7236-.668.1636-.2871.2456-.6162.2456-.9873zm-1.4009 2.9961v2.4863h-1.4194v-2.4863zm.1763-15.1504v2.7744h-1.4287v-2.7744z"/><path d="m258.5732 546.4579h.2783v1.8281h-.1577c-.7979 0-1.4858.124-2.064.3711-.5786.248-1.0532.5879-1.4243 1.0205s-.6479.9385-.8306 1.5166c-.1821.5781-.2734 1.1924-.2734 1.8418v2.125c0 .5371.0586 1.0117.1763 1.4238.1172.4111.2827.7539.4966 1.0293.2129.2754.459.4844.7373.627s.5781.2129.8999.2129c.334 0 .6367-.0693.9092-.209.272-.1387.5039-.332.6958-.5801.1914-.2461.3369-.541.436-.8809.0986-.3398.1484-.7109.1484-1.1133 0-.3828-.0479-.7441-.144-1.0811-.0957-.3369-.2363-.6338-.4219-.8906s-.416-.458-.6914-.6025c-.2749-.1455-.5923-.2188-.9507-.2188-.4453 0-.8491.1055-1.2104.3164-.3623.21-.6528.4834-.8721.8203-.2197.3379-.3389.6953-.3574 1.0723l-.8535-.2793c.0493-.5742.1777-1.0908.3848-1.5488.2075-.457.481-.8477.8213-1.1689.3398-.3213.7344-.5674 1.1826-.7373.4487-.1699.9419-.2559 1.48-.2559.6553 0 1.2246.125 1.707.3711.4824.248.8828.584 1.2017 1.0068.3184.4238.5566.9062.7139 1.4473.1582.542.2368 1.1064.2368 1.6934 0 .6494-.0991 1.2539-.2969 1.8135-.1982.5605-.4868 1.0508-.8677 1.4707-.3799.4209-.8408.748-1.3818.9834-.5415.2354-1.1553.3525-1.8418.3525-.7236 0-1.3682-.1387-1.9346-.418-.5654-.2773-1.0449-.6611-1.4375-1.1504-.3931-.4883-.6914-1.0508-.8955-1.6875s-.3062-1.3115-.3062-2.0234v-.9277c0-1.0254.1299-1.9961.3896-2.9082s.6602-1.7168 1.2017-2.416c.541-.6992 1.2349-1.248 2.0825-1.6475.8472-.3984 1.8584-.5986 3.0337-.5986z"/><path d="m264.9653 553.7684-1.7812-.4355.7329-6.791h7.2827v1.8926h-5.4272l-.3711 3.3125c.21-.124.501-.2461.8721-.3672.3711-.1201.7944-.1807 1.271-.1807.6367 0 1.2075.1035 1.7114.3105.5044.208.9326.5068 1.2852.9004.3525.3926.6216.8682.8071 1.4287.1855.5596.2783 1.1895.2783 1.8877 0 .625-.0913 1.21-.2739 1.7529-.1821.5449-.4561 1.0244-.8208 1.4385-.3652.415-.8242.7373-1.3774.9697-.5537.2314-1.208.3477-1.9624.3477-.563 0-1.1025-.082-1.6187-.2461-.5166-.1641-.979-.4082-1.3872-.7324-.4082-.3252-.7363-.7266-.9834-1.2061-.2476-.4795-.3896-1.0312-.4268-1.6562h2.1895c.0557.4395.1777.8115.3667 1.1182.1885.3057.4404.5391.7559.7002s.6802.2412 1.0947.2412c.377 0 .7017-.0664.9741-.1992.272-.1328.4995-.3252.6821-.5752.1821-.251.3184-.5459.4082-.8857.0894-.3398.1343-.7178.1343-1.1328 0-.3945-.0513-.7568-.1528-1.085-.1025-.3271-.2539-.6123-.4551-.8535-.2007-.2412-.4531-.4287-.7559-.5615-.3032-.1328-.6528-.1992-1.0483-.1992-.5322 0-.9385.0781-1.2202.2324-.2812.1543-.5425.3457-.7837.5742z"/><g fill="#4285f4"><path d="m247.5869 507.4364c0-.248-.0371-.4697-.1123-.6641-.0742-.1934-.2061-.3701-.394-.5312-.188-.1602-.4526-.3164-.7925-.4688-.3408-.1523-.7734-.3086-1.2993-.4688-.5757-.1777-1.1055-.375-1.5894-.5938-.4844-.2188-.9062-.4727-1.2661-.7637-.3599-.29-.6392-.625-.8384-1.0039s-.2988-.8184-.2988-1.3164c0-.4922.1035-.9404.3115-1.3438.207-.4043.5034-.7539.8877-1.0508.3848-.2959.8398-.5254 1.3657-.6885s1.1069-.2451 1.7432-.2451c.8965 0 1.6699.166 2.3198.498.6504.332 1.1514.7773 1.5029 1.3359.3511.5596.5269 1.1758.5269 1.8516h-2.0669c0-.3984-.0845-.751-.2529-1.0586-.1689-.3066-.4238-.5488-.7637-.7266-.3408-.1768-.771-.2656-1.291-.2656-.4927 0-.9019.0752-1.2285.2246s-.5698.3516-.7305.6055c-.1606.2549-.2407.543-.2407.8633 0 .2275.0527.4336.1577.6191s.2656.3564.4814.5146c.2158.1572.4868.3057.8135.4443.3267.1377.7109.2705 1.1538.3984.6694.1992 1.2534.4189 1.7515.6592.498.2412.9131.5137 1.2451.8174.332.3047.5811.6494.7471 1.0342.166.3838.249.8203.249 1.3076 0 .5088-.1025.9668-.3071 1.373-.2046.4072-.4966.7529-.8755 1.0381-.3794.2842-.833.5029-1.3613.6553-.5288.1523-1.1167.2285-1.7642.2285-.5811 0-1.1523-.0781-1.7144-.2324-.5615-.1543-1.0718-.3916-1.5312-.71-.4595-.3174-.8247-.7158-1.0957-1.1953-.271-.4785-.4067-1.0381-.4067-1.6807h2.0835c0 .3926.0679.7275.2031 1.0039.1357.2773.3252.5029.5688.6768.2437.1748.5269.3037.8511.3857.3232.084.6709.125 1.0415.125.4868 0 .895-.0693 1.2241-.207.3296-.1387.5771-.332.7432-.582.166-.248.249-.5361.249-.8633z"/><path d="m255.4395 501.5682v1.4609h-5.0635v-1.4609zm-3.6025-2.2002h2.0005v8.6992c0 .2773.04.4883.1206.6357.0801.1465.1919.2451.3359.2939.144.0508.3125.0752.5063.0752.1382 0 .271-.0088.3984-.0244.1274-.0176.2295-.0332.3071-.0508l.0083 1.5273c-.166.0508-.3584.0947-.5767.1328-.2188.0391-.4692.0586-.7515.0586-.4595 0-.8662-.082-1.2202-.2451s-.6309-.4307-.8301-.8008-.2988-.8633-.2988-1.4775v-8.8242z"/><path d="m262.3374 505.0878.0166 1.2373h-1.436c-.3706 0-.6973.0342-.9795.1035-.2822.0684-.5176.1699-.7056.3027s-.3291.293-.4233.4814-.1411.4014-.1411.6396c0 .2373.0552.4551.166.6514s.2725.3496.4858.46c.2129.1113.4717.166.7759.166.4097 0 .7681-.084 1.0747-.2529.3076-.1689.5493-.376.7266-.6221s.271-.4805.2822-.7012l.6475.8877c-.0664.2275-.1797.4697-.3403.7305s-.3696.5078-.6265.7432c-.2578.2344-.5645.4277-.9219.5762-.3564.1504-.7676.2246-1.2324.2246-.5864 0-1.1094-.1172-1.5688-.3525s-.8188-.5537-1.0791-.9551-.3901-.8564-.3901-1.3652c0-.4756.0898-.8975.2695-1.2656.1802-.3682.4458-.6768.7969-.9258.3516-.249.7817-.4385 1.291-.5684s1.0903-.1953 1.7432-.1953h1.5688zm-.2905 3.6611v-4.2832c0-.3213-.0581-.5977-.1743-.8301s-.292-.4121-.5269-.54c-.2354-.1279-.5303-.1904-.8843-.1904-.3267 0-.6089.0547-.8467.166-.2378.1104-.4233.2598-.5562.4473-.1328.1885-.1992.4023-.1992.6396h-1.9922c0-.3545.0859-.6973.2573-1.0293s.4204-.6279.7471-.8877c.3267-.2607.7168-.4648 1.1704-.6152.4536-.1484.9629-.2236 1.5273-.2236.6753 0 1.2744.1133 1.7969.3408.5234.2266.9355.5684 1.2373 1.0244.3013.457.4521 1.0283.4521 1.7139v3.9932c0 .4092.0293.7764.0869 1.0996.0586.3242.1426.6045.2534.8428v.1328h-2.0503c-.0942-.2158-.1675-.4912-.2197-.8262-.0527-.334-.0791-.6602-.0791-.9746z"/><path d="m270.2646 501.5682v1.4609h-5.0635v-1.4609zm-3.6025-2.2002h2.0005v8.6992c0 .2773.04.4883.1206.6357.0801.1465.1919.2451.3359.2939.144.0508.3125.0752.5063.0752.1382 0 .271-.0088.3984-.0244.1274-.0176.2295-.0332.3071-.0508l.0083 1.5273c-.166.0508-.3584.0947-.5767.1328-.2188.0391-.4692.0586-.7515.0586-.4595 0-.8662-.082-1.2202-.2451s-.6309-.4307-.8301-.8008-.2988-.8633-.2988-1.4775v-8.8242z"/><path d="m277.4946 506.5653.6724-.0166c0 .6025-.0664 1.1582-.1992 1.6641-.1328.5068-.3374.9463-.6143 1.3203-.2769.373-.6309.6641-1.0625.8711-.4316.208-.9492.3115-1.5522.3115-.437 0-.8384-.0635-1.2036-.1914-.3652-.127-.6792-.3232-.9424-.5889-.2627-.2656-.4658-.6113-.6099-1.0381-.144-.4258-.2158-.9346-.2158-1.5273v-5.8018h2.0005v5.8193c0 .3262.0386.5986.1162.8174.0776.2178.1826.3936.3154.5264s.2876.2275.4648.2832c.1772.0547.3652.082.5645.082.5698 0 1.0195-.1113 1.3486-.3359.3296-.2236.5645-.5273.7061-.9082.1406-.3828.2114-.8105.2114-1.2871zm-.2822 1.8672v-6.8643h2.0088v8.9814h-1.8926l-.1162-2.1172z"/><path d="m285.2227 510.7157c-.6641 0-1.2632-.1094-1.7974-.3281-.5337-.2188-.9873-.5234-1.3613-.917-.373-.3936-.6597-.8545-.8589-1.3857s-.2988-1.1045-.2988-1.7188v-.332c0-.7031.1025-1.3398.3071-1.9092s.4897-1.0586.855-1.4648c.3652-.4072.7969-.7178 1.2949-.9346.498-.2148 1.0376-.3232 1.6187-.3232.6421 0 1.2036.1084 1.6851.3232.4814.2168.8813.5195 1.1997.9092.3179.3906.5557.8545.7139 1.3906.1572.5361.2363 1.1289.2363 1.7764v.8555h-6.9395v-1.4365h4.9639v-.1572c-.0112-.3604-.0815-.6973-.2119-1.0137-.1299-.3145-.3276-.5693-.5933-.7637-.2656-.1934-.6196-.29-1.0625-.29-.332 0-.6265.0703-.8843.2119-.2568.1406-.4717.3438-.6431.6094s-.3032.5859-.394.959c-.0918.374-.1372.793-.1372 1.2578v.332c0 .3926.0542.7568.1616 1.0918.1084.334.2671.627.4775.875.2104.25.4648.4443.7637.5859.2988.1406.6392.2109 1.021.2109.4814 0 .9102-.0957 1.2866-.29s.7026-.4678.9795-.8213l1.0542 1.0205c-.1938.2822-.4453.5518-.7554.8096-.3101.2568-.6875.4658-1.1328.627-.4458.1602-.9619.2402-1.5483.2402z"/><path d="m294.2124 506.1591v-.1914c0-.6475.0942-1.249.2822-1.8057.188-.5557.4609-1.04.8174-1.4521.3574-.4121.7944-.7334 1.3115-.9629.5176-.2305 1.103-.3447 1.7559-.3447.6587 0 1.2466.1143 1.7637.3447.5176.2295.9561.5508 1.3159.9629s.6338.8965.8218 1.4521c.188.5566.2822 1.1582.2822 1.8057v.1914c0 .6465-.0942 1.248-.2822 1.8008s-.4619 1.0361-.8218 1.4482c-.3599.4131-.7969.7334-1.3115.9629s-1.0986.3447-1.7515.3447c-.6587 0-1.2466-.1152-1.7637-.3447-.5176-.2295-.9561-.5498-1.3159-.9629-.3599-.4121-.6338-.8955-.8218-1.4482s-.2822-1.1543-.2822-1.8008zm2.0005-.1914v.1914c0 .4033.0415.7852.1245 1.1445.083.3604.2129.6758.3901.9473.1772.2705.4038.4844.6807.6387s.606.2324.9878.2324c.3706 0 .6934-.0781.9668-.2324.2744-.1543.4995-.3682.6768-.6387.1772-.2715.3086-.5869.3945-.9473.0854-.3594.1284-.7412.1284-1.1445v-.1914c0-.3984-.043-.7764-.1284-1.1328-.0859-.3574-.2188-.6738-.3984-.9512-.1802-.2764-.4072-.4932-.6807-.6514-.2744-.1572-.5991-.2363-.9756-.2363s-.7012.0791-.9756.2363c-.2734.1582-.499.375-.6763.6514-.1772.2773-.3071.5938-.3901.9512-.083.3564-.1245.7344-.1245 1.1328z"/><path d="m308.7969 501.5682v1.4609h-5.2295v-1.4609zm-1.8511 8.9814h-2.0005v-9.8447c0-.6689.126-1.2324.3774-1.6895.252-.4561.6133-.8018 1.0835-1.0371s1.0264-.3525 1.6685-.3525c.1992 0 .3955.0117.5894.0371.1938.0244.3818.0625.5645.1113l-.0498 1.5449c-.1108-.0283-.231-.0469-.3608-.0586-.1304-.0117-.27-.0166-.4194-.0166-.3042 0-.5659.0566-.7847.1699-.2183.1143-.3843.2783-.498.4941-.1133.2158-.1699.4814-.1699.7969v9.8447z"/><path d="m316.749 498.4637v12.0859h-2.0835v-12.0859zm5.4868 10.4336v1.6523h-6.0679v-1.6523z"/><path d="m323.647 499.2108c0-.3037.1011-.5576.3027-.7598.2021-.2021.4829-.3027.8428-.3027.354 0 .6338.1006.8384.3027s.3071.4561.3071.7598c0 .2988-.1025.5479-.3071.7471s-.4844.2988-.8384.2988c-.3599 0-.6406-.0996-.8428-.2988-.2017-.1992-.3027-.4482-.3027-.7471zm2.1416 2.3574v8.9814h-2.0088v-8.9814z"/><path d="m327.9883 497.7997h2.0005v10.832l-.1909 1.918h-1.8096zm7.8608 8.1758v.1748c0 .6641-.0732 1.2744-.2197 1.8301-.147.5566-.3682 1.0391-.6641 1.4482-.2964.4102-.6616.7266-1.0957.9512-.4346.2236-.937.3359-1.5068.3359-.5591 0-1.0459-.1055-1.4609-.3154s-.7622-.5088-1.042-.8965c-.2793-.3877-.5049-.8496-.6763-1.3857-.1714-.5371-.2935-1.1289-.3652-1.7773v-.5557c.0718-.6533.1938-1.2471.3652-1.7803.1714-.5342.397-.9961.6763-1.3867.2798-.3896.6255-.6895 1.0381-.9004.4121-.2109.895-.3154 1.4482-.3154.5757 0 1.083.1104 1.5234.332.4395.2217.8062.5352 1.0996.9424.2935.4062.5132.8887.6602 1.4482.1465.5596.2197 1.1758.2197 1.8506zm-2.0005.1748v-.1748c0-.4033-.0332-.7842-.0996-1.1406-.0664-.3574-.1758-.6719-.3276-.9424-.1523-.2705-.3574-.4854-.6143-.6436-.2578-.1572-.5771-.2363-.959-.2363-.354 0-.6587.0605-.9131.1826s-.4678.2881-.6392.498-.3057.4541-.4028.7305c-.0967.2764-.1616.5752-.1948.8965v1.5029c.0498.4141.1562.7949.3198 1.1406.1631.3457.394.623.6929.8301.2988.208.6836.3115 1.1538.3115.3706 0 .6836-.0752.938-.2236.2544-.1504.458-.3594.6099-.627.1523-.2686.2632-.582.332-.9424.0693-.3604.104-.7471.104-1.1621z"/><path d="m341.4937 510.7157c-.6641 0-1.2632-.1094-1.7974-.3281-.5337-.2188-.9873-.5234-1.3613-.917-.373-.3936-.6597-.8545-.8589-1.3857s-.2988-1.1045-.2988-1.7188v-.332c0-.7031.1025-1.3398.3071-1.9092s.4897-1.0586.855-1.4648c.3652-.4072.7969-.7178 1.2949-.9346.498-.2148 1.0376-.3232 1.6187-.3232.6421 0 1.2036.1084 1.6851.3232.4814.2168.8813.5195 1.1997.9092.3179.3906.5557.8545.7139 1.3906.1572.5361.2363 1.1289.2363 1.7764v.8555h-6.9395v-1.4365h4.9639v-.1572c-.0112-.3604-.0815-.6973-.2119-1.0137-.1299-.3145-.3276-.5693-.5933-.7637-.2656-.1934-.6196-.29-1.0625-.29-.332 0-.6265.0703-.8843.2119-.2568.1406-.4717.3438-.6431.6094s-.3032.5859-.394.959c-.0918.374-.1372.793-.1372 1.2578v.332c0 .3926.0542.7568.1616 1.0918.1084.334.2671.627.4775.875.2104.25.4648.4443.7637.5859.2988.1406.6392.2109 1.021.2109.4814 0 .9102-.0957 1.2866-.29s.7026-.4678.9795-.8213l1.0542 1.0205c-.1938.2822-.4453.5518-.7554.8096-.3101.2568-.6875.4658-1.1328.627-.4458.1602-.9619.2402-1.5483.2402z"/><path d="m348.6489 503.2782v7.2715h-2.0005v-8.9814h1.9092l.0913 1.71zm2.7476-1.7676-.0166 1.8594c-.1216-.0225-.2534-.0391-.394-.0508-.1416-.0107-.2812-.0156-.4194-.0156-.3433 0-.6445.0479-.9048.1445-.2603.0977-.4775.2354-.6514.415-.1748.1807-.3086.3975-.4028.6514-.0942.2549-.1494.54-.166.8555l-.4565.0332c0-.5645.0552-1.0879.166-1.5684.1108-.4824.2783-.9053.502-1.2705.2246-.3652.5068-.6504.8467-.8545.3408-.2051.7349-.3076 1.1831-.3076.1216 0 .2534.0107.394.0332.1416.0225.248.0469.3198.0752z"/><path d="m357.1821 501.5682v1.4609h-5.0635v-1.4609zm-3.6025-2.2002h2.0005v8.6992c0 .2773.04.4883.1206.6357.0801.1465.1919.2451.3359.2939.144.0508.3125.0752.5063.0752.1382 0 .271-.0088.3984-.0244.1274-.0176.2295-.0332.3071-.0508l.0083 1.5273c-.166.0508-.3584.0947-.5767.1328-.2188.0391-.4692.0586-.7515.0586-.4595 0-.8662-.082-1.2202-.2451s-.6309-.4307-.8301-.8008-.2988-.8633-.2988-1.4775v-8.8242z"/><path d="m359.9546 501.5682 2.1333 6.7236.3569 2.1084-1.3862.3564-3.2622-9.1885h2.1582zm1.3779 8.002 2.4404-8.002h2.1416l-3.6025 10.3506c-.083.2217-.1909.4629-.3237.7227s-.3057.5078-.519.7432c-.2129.2354-.4771.4258-.7925.5723-.3154.1475-.6973.2197-1.1455.2197-.1772 0-.3472-.0146-.5103-.0449-.1636-.0312-.3169-.0625-.4609-.0957l-.0083-1.5273c.0552.0059.123.0117.2036.0166.0801.0049.145.0088.1948.0088.332 0 .6089-.041.8301-.1211s.4028-.209.5435-.3857c.1416-.1768.2617-.415.3613-.7139l.6475-1.7432z"/><path d="m245.1465 521.9677v1.4609h-5.0635v-1.4609zm-3.6025-2.1992h2.0005v8.6992c0 .2773.04.4883.1206.6348.0801.1465.1919.2451.3359.2949s.3125.0742.5063.0742c.1382 0 .271-.0078.3984-.0244s.2295-.0332.3071-.0498l.0083 1.5273c-.166.0498-.3584.0938-.5767.1328-.2188.0391-.4692.0586-.7515.0586-.4595 0-.8662-.082-1.2202-.2461-.354-.1621-.6309-.4297-.8301-.8008-.1992-.3701-.2988-.8633-.2988-1.4766v-8.8242z"/><path d="m246.1094 526.5585v-.1904c0-.6484.0942-1.25.2822-1.8066.188-.5547.4609-1.0391.8174-1.4512.3574-.4131.7944-.7344 1.3115-.9629.5176-.2305 1.103-.3457 1.7559-.3457.6587 0 1.2466.1152 1.7637.3457.5176.2285.9561.5498 1.3159.9629.3599.4121.6338.8965.8218 1.4512.188.5566.2822 1.1582.2822 1.8066v.1904c0 .6475-.0942 1.248-.2822 1.8018-.188.5527-.4619 1.0352-.8218 1.4473-.3599.4131-.7969.7344-1.3115.9629-.5146.2305-1.0986.3457-1.7515.3457-.6587 0-1.2466-.1152-1.7637-.3457-.5176-.2285-.9561-.5498-1.3159-.9629-.3599-.4121-.6338-.8945-.8218-1.4473-.188-.5537-.2822-1.1543-.2822-1.8018zm2.0005-.1904v.1904c0 .4033.0415.7861.1245 1.1455s.2129.6758.3901.9463.4038.4844.6807.6396c.2769.1543.606.2324.9878.2324.3706 0 .6934-.0781.9668-.2324.2744-.1553.4995-.3691.6768-.6396s.3086-.5869.3945-.9463c.0854-.3594.1284-.7422.1284-1.1455v-.1904c0-.3984-.043-.7773-.1284-1.1328-.0859-.3574-.2188-.6738-.3984-.9512-.1802-.2773-.4072-.4941-.6807-.6523-.2744-.1562-.5991-.2363-.9756-.2363s-.7012.0801-.9756.2363c-.2734.1582-.499.375-.6763.6523s-.3071.5938-.3901.9512c-.083.3555-.1245.7344-.1245 1.1328z"/><path d="m261.8228 526.9657.6724-.0176c0 .6035-.0664 1.1582-.1992 1.6641-.1328.5078-.3374.9473-.6143 1.3203s-.6309.6641-1.0625.8711c-.4316.209-.9492.3125-1.5522.3125-.437 0-.8384-.0645-1.2036-.1914s-.6792-.3242-.9424-.5898c-.2627-.2656-.4658-.6113-.6099-1.0371s-.2158-.9355-.2158-1.5273v-5.8027h2.0005v5.8193c0 .3271.0386.5986.1162.8174s.1826.3945.3154.5273.2876.2266.4648.2822.3652.083.5645.083c.5698 0 1.0195-.1113 1.3486-.3359.3296-.2246.5645-.5273.7061-.9092.1406-.3818.2114-.8105.2114-1.2861zm-.2822 1.8672v-6.8652h2.0088v8.9824h-1.8926z"/><path d="m267.6001 523.6786v7.2715h-2.0005v-8.9824h1.9092zm2.7476-1.7686-.0166 1.8594c-.1216-.0225-.2534-.0381-.394-.0498-.1416-.0117-.2812-.0166-.4194-.0166-.3433 0-.6445.0479-.9048.1455-.2603.0967-.4775.2344-.6514.4141-.1748.1807-.3086.3984-.4028.6523s-.1494.5391-.166.8555l-.4565.0332c0-.5645.0552-1.0879.166-1.5693s.2783-.9053.502-1.2705c.2246-.3652.5068-.6504.8467-.8545.3408-.2041.7349-.3076 1.1831-.3076.1216 0 .2534.0117.394.0332.1416.0225.248.0469.3198.0752z"/></g><path d="m251.5503 576.3231v4.9453c-.167.248-.4331.5244-.7979.8301-.3652.3066-.8677.5723-1.5073.7979-.6406.2256-1.4648.3389-2.4727.3389-.8228 0-1.5786-.1436-2.2686-.4316-.6895-.2871-1.2861-.708-1.79-1.2617-.5044-.5527-.894-1.2275-1.1689-2.0225-.2754-.7939-.4131-1.6963-.4131-2.7041v-1.0488c0-1.0078.1191-1.9072.3574-2.6992.2378-.791.5889-1.4648 1.0527-2.0176.4639-.5537 1.0327-.9746 1.707-1.2617.6738-.2881 1.4473-.4316 2.3193-.4316 1.0327 0 1.8975.1777 2.5928.5332.6963.3555 1.2402.8457 1.6328 1.4707.3931.625.645 1.3359.7563 2.1338h-1.7905c-.0806-.4883-.2397-.9336-.4775-1.3359-.2383-.4014-.5771-.7256-1.0161-.9697-.4395-.2441-1.0054-.3662-1.6978-.3662-.625 0-1.166.1143-1.6235.3428-.458.2295-.835.5566-1.1318.9844-.2969.4258-.5181.9434-.6636 1.5488-.145.6064-.2178 1.2891-.2178 2.0508v1.0664c0 .7793.0913 1.4746.2734 2.0879.1826.6113.4438 1.1328.7842 1.5625.3398.4297.7471.7559 1.2197.9785.4736.2227.9976.334 1.5728.334.6367 0 1.1533-.0537 1.5493-.1621.3955-.1074.7051-.2383.9277-.3896s.3926-.2949.5103-.4307v-3.0254h-3.1265v-1.4473h4.9077z" fill="#9aa0a6"/><path d="m255.9663 574.5887v8.4609h-1.7163v-10.0381h1.6699l.0464 1.5771zm3.1357-1.6328-.0093 1.5957c-.1426-.0312-.2769-.0508-.4038-.0605-.1265-.0088-.2705-.0137-.4312-.0137-.396 0-.7456.0625-1.0483.1855-.3032.124-.5601.2969-.77.5195-.2104.2227-.3755.4873-.4966.793-.1201.3066-.1992.6426-.2363 1.0068l-.4824.2783c0-.6055.0605-1.1748.1807-1.707.1211-.5312.3076-1.0039.5615-1.415.2534-.4111.5767-.7324.9697-.9648.3926-.2314.8608-.3477 1.4053-.3477.1235 0 .2656.0137.4268.042.1606.0273.272.0566.334.0879z" fill="#9aa0a6"/><path d="m264.6777 583.2352c-.6992 0-1.3311-.1191-1.8975-.3574-.5654-.2383-1.0513-.5732-1.4561-1.0059-.4053-.4336-.7163-.9473-.9326-1.541-.2168-.5938-.3247-1.2422-.3247-1.9473v-.3906c0-.8164.1206-1.5439.3618-2.1846.2412-.6396.5688-1.1826.9834-1.6279.4141-.4453.8843-.7822 1.4102-1.0117.5254-.2285 1.0698-.3428 1.6328-.3428.7173 0 1.3374.124 1.8604.3711.5225.2471.9507.5928 1.2847 1.0342.334.4424.5811.9619.7422 1.5586.1606.5977.2412 1.248.2412 1.9531v.7695h-7.4961v-1.4004h5.7798v-.1299c-.0249-.4453-.1162-.8779-.2734-1.2988-.1582-.4209-.4072-.7666-.7471-1.0391-.3403-.2725-.8042-.4082-1.3916-.4082-.3896 0-.7485.082-1.0762.2461-.3281.1631-.6094.4072-.8442.7275-.2354.3223-.4175.7148-.5474 1.1787s-.1948.999-.1948 1.6045v.3906c0 .4766.0664.9229.1997 1.3398.1328.418.3276.7842.584 1.0996.2568.3154.5693.5625.9375.7422.3677.1797.7866.2695 1.2568.2695.606 0 1.1191-.124 1.54-.3711.4204-.248.7886-.5781 1.104-.9932l1.0391.8252c-.2168.3281-.4917.6406-.8257.9375s-.7437.5381-1.2295.7236c-.4854.1855-1.0591.2783-1.7207.2783z" fill="#9aa0a6"/><path d="m276.8032 576.9637.0186 1.2061h-1.7349c-.4888 0-.9248.0381-1.3081.1162-.3838.0771-.7051.1934-.9648.3477s-.458.3477-.5938.5801c-.1362.2314-.2041.502-.2041.8115 0 .3154.0708.6025.2134.8623.1421.2598.3574.4658.6445.6172.2881.1523.6416.2275 1.0625.2275.5254 0 .9893-.1113 1.3916-.334.4019-.2227.7222-.4951.96-.8164.2383-.3213.3667-.6338.3853-.9365l.7329.8252c-.0435.2598-.1611.5479-.3525.8623-.1919.3164-.4468.6172-.7656.9053-.3184.2871-.6953.5254-1.1318.7139-.4355.1895-.9263.2832-1.4702.2832-.6807 0-1.2759-.1328-1.7856-.3984-.5107-.2656-.9062-.623-1.1875-1.0723-.2817-.4482-.4224-.9512-.4224-1.5078 0-.5371.105-1.0117.3154-1.4238.21-.4111.5132-.7539.9092-1.0293.3955-.2754.8721-.4844 1.4287-.627.5566-.1416 1.1782-.2129 1.8647-.2129h1.9946zm-.2969 4.3691v-5.167c0-.3955-.0786-.7412-.2368-1.0342-.1572-.2939-.394-.5215-.7095-.6816-.3154-.1611-.7051-.2422-1.1689-.2422-.4331 0-.812.0742-1.1362.2227-.3252.1484-.5786.3438-.7607.585-.1826.2412-.2739.501-.2739.7793h-1.7163c0-.3584.0928-.7139.2783-1.0674.1855-.3516.4531-.6719.8027-.96.3491-.2871.7695-.5166 1.2617-.6865.4912-.1699 1.04-.2549 1.6465-.2549.7295 0 1.3745.124 1.9346.3711.5596.2471.9985.6201 1.3174 1.1182.3184.498.4775 1.1211.4775 1.8691v4.6758c0 .334.0293.6895.0879 1.0664.0591.3779.147.7031.2646.9746v.1484h-1.7905c-.0869-.1973-.1548-.4629-.2041-.793-.0498-.3311-.0742-.6387-.0742-.9238z" fill="#9aa0a6"/><path d="m285.125 573.0116v1.3174h-5.4272v-1.3174zm-3.5903-2.4404h1.7163v9.9922c0 .3398.0522.5977.1577.7695.105.1738.2412.2881.4082.3438s.3462.084.5381.084c.1421 0 .2925-.0146.4497-.042.1582-.0283.2769-.0518.3574-.0693l.0093 1.4004c-.1362.043-.314.085-.5337.125-.2192.041-.4839.0605-.793.0605-.4209 0-.8071-.084-1.1597-.25-.3525-.168-.6323-.4473-.8394-.8398-.2075-.3926-.311-.9238-.311-1.5918v-9.9824z" fill="#9aa0a6"/><path d="m295.5527 578.7548h1.7812c-.0928.8535-.3374 1.6172-.7329 2.291-.396.6738-.9556 1.207-1.6792 1.6006-.7236.3926-1.627.5889-2.709.5889-.792 0-1.5107-.1484-2.1572-.4453-.646-.2969-1.2012-.7188-1.665-1.2666-.4639-.5469-.8213-1.2061-1.0713-1.9756-.251-.7705-.376-1.6289-.376-2.5742v-1.3457c0-.9463.125-1.8047.376-2.5742.25-.7705.6123-1.4297 1.085-1.9805.4736-.5508 1.0439-.9746 1.7119-1.2715s1.4194-.4453 2.2544-.4453c1.0205 0 1.8833.1914 2.5884.5752s1.2539.9141 1.6465 1.5908c.3931.6777.6357 1.4609.7285 2.3516h-1.7812c-.0869-.6309-.2476-1.1729-.4824-1.6279-.2354-.4541-.5693-.8057-1.002-1.0527-.4331-.2471-.999-.3711-1.6978-.3711-.6001 0-1.1274.1143-1.5815.3428-.4551.2295-.835.5547-1.1416.9746-.3057.4209-.5366.9248-.6909 1.5117-.1548.5879-.2319 1.2402-.2319 1.958v1.3643c0 .6621.0693 1.2832.209 1.8643.1387.5811.3506 1.0918.6353 1.5303.2842.4395.646.7842 1.0854 1.0352.439.25.9585.375 1.5586.375.7607 0 1.3667-.1201 1.8184-.3613.4512-.2412.793-.5879 1.0254-1.0391.2314-.4512.397-.9922.4961-1.623z" fill="#9aa0a6"/><path d="m299.5142 570.3485c0-.2773.085-.5127.2549-.7051.1704-.1914.4224-.2871.7563-.2871.3276 0 .5796.0957.7563.2871.1758.1924.2642.4277.2642.7051 0 .2666-.0884.4941-.2642.6826-.1768.1885-.4287.2822-.7563.2822-.334 0-.5859-.0938-.7563-.2822-.1699-.1885-.2549-.416-.2549-.6826zm1.8555 2.6631v10.0381h-1.7256v-10.0381z" fill="#9aa0a6"/><path d="m308.3276 573.0116v1.3174h-5.4272v-1.3174zm-3.5903-2.4404h1.7163v9.9922c0 .3398.0522.5977.1577.7695.105.1738.2412.2881.4082.3438s.3462.084.5381.084c.1421 0 .2925-.0146.4497-.042.1582-.0283.2769-.0518.3574-.0693l.0093 1.4004c-.1362.043-.314.085-.5337.125-.2192.041-.4839.0605-.793.0605-.4209 0-.8071-.084-1.1597-.25-.3525-.168-.6323-.4473-.8394-.8398-.2075-.3926-.311-.9238-.311-1.5918v-9.9824z" fill="#9aa0a6"/><path d="m311.1108 573.0116 2.6069 7.793.4453 1.8096-1.2339.6309-3.6924-10.2334h1.874zm2.0503 8.999 2.7925-8.999h1.8369l-4.0264 11.5869c-.0928.248-.2148.5156-.3662.8027-.1519.2881-.3452.5615-.5801.8213-.2354.2598-.5181.4717-.8486.6357-.3311.1641-.7256.2461-1.1831.2461-.1362 0-.3096-.0195-.5195-.0566-.2104-.0371-.3589-.0684-.4453-.0918l-.0093-1.3926c.0493.0059.1284.0146.2363.0234.1084.0098.1841.0137.2275.0137.3896 0 .7202-.0508.9927-.1523.272-.1025.5024-.2725.6909-.5107.189-.2373.3511-.5645.4873-.9785l.7144-1.9482z" fill="#9aa0a6"/><path d="m328.9233 569.5419v1.4658h-10.437v-1.4658zm-4.3418 0v13.5078h-1.7627v-13.5078z" fill="#9aa0a6"/><path d="m329.2944 578.1415v-.2129c0-.7236.105-1.3965.3154-2.0176.21-.6221.5132-1.1631.9092-1.624.3955-.46.875-.8193 1.438-1.0762.5625-.2568 1.1934-.3848 1.8926-.3848.7051 0 1.3403.1279 1.9067.3848.5654.2568 1.0479.6162 1.4473 1.0762.3984.4609.7031 1.002.9136 1.624.21.6211.3154 1.2939.3154 2.0176v.2129c0 .7246-.1055 1.3955-.3154 2.0137-.2104.6191-.5151 1.1582-.9136 1.6191-.3994.4609-.8784.8193-1.4385 1.0762-.5596.2559-1.1919.3848-1.897.3848s-1.3394-.1289-1.9019-.3848c-.563-.2568-1.0439-.6152-1.4424-1.0762-.3994-.4609-.7041-1-.9141-1.6191-.2104-.6182-.3154-1.2891-.3154-2.0137zm1.7163-.2129v.2129c0 .502.0586.9727.1763 1.415.1172.4424.2954.834.5332 1.1738.2383.3408.5366.6074.8955.8027.3584.1943.7759.292 1.2524.292.4697 0 .8828-.0977 1.2388-.292.3555-.1953.6504-.4619.8857-.8027.2349-.3398.4131-.7314.5332-1.1738.1211-.4424.1812-.9131.1812-1.415v-.2129c0-.4941-.0601-.9629-.1812-1.4053-.1201-.4424-.2998-.835-.5381-1.1787-.2378-.3428-.5347-.6133-.8906-.8115-.3555-.1982-.7715-.2969-1.2476-.2969-.4702 0-.8828.0986-1.2388.2969-.3555.1982-.6523.4688-.8906.8115-.2378.3438-.416.7363-.5332 1.1787-.1177.4424-.1763.9111-.1763 1.4053z" fill="#9aa0a6"/><path d="m347.0513 578.6151.7144-.0186c0 .668-.0698 1.2852-.2085 1.8506-.1396.5664-.3638 1.0566-.6729 1.4707-.3096.415-.7144.7373-1.2153.9697-.501.2314-1.1104.3477-1.8276.3477-.4888 0-.9355-.0713-1.3408-.2129-.4048-.1426-.7529-.3623-1.0435-.6592-.291-.2969-.5151-.6826-.6724-1.1592-.1582-.4766-.2368-1.0488-.2368-1.7168v-6.4756h1.7163v6.4941c0 .4521.0508.8242.1533 1.1182.1016.293.2412.5254.417.6953.1768.1699.3745.2891.5938.3574.2197.0684.4468.1016.6821.1016.7295 0 1.3081-.1406 1.7349-.4219s.7344-.6621.9229-1.1406c.189-.4795.2832-1.0127.2832-1.6006zm-.3247 2.1152v-7.7188h1.7256v10.0381h-1.6421z" fill="#9aa0a6"/><path d="m352.7754 574.5887v8.4609h-1.7163v-10.0381h1.6699l.0464 1.5771zm3.1357-1.6328-.0093 1.5957c-.1426-.0312-.2769-.0508-.4038-.0605-.1265-.0088-.2705-.0137-.4312-.0137-.396 0-.7456.0625-1.0483.1855-.3032.124-.5601.2969-.77.5195-.2104.2227-.3755.4873-.4966.793-.1201.3066-.1992.6426-.2363 1.0068l-.4824.2783c0-.6055.0605-1.1748.1807-1.707.1211-.5312.3076-1.0039.5615-1.415.2534-.4111.5767-.7324.9697-.9648.3926-.2314.8608-.3477 1.4053-.3477.1235 0 .2656.0137.4268.042.1606.0273.272.0566.334.0879z" fill="#9aa0a6"/><path d="m363.3423 580.3876c0-.248-.0542-.4785-.1626-.6914-.1079-.2139-.3276-.4082-.6582-.585-.3311-.1758-.8276-.3291-1.4893-.459-.5566-.1172-1.0591-.2568-1.5078-.417-.4482-.1611-.8286-.3555-1.1406-.585-.3125-.2285-.5522-.4971-.7192-.8076-.167-.3086-.2505-.6699-.2505-1.085 0-.3955.0879-.7705.2646-1.1221.1758-.3535.4268-.665.751-.9375.3252-.2715.7158-.4854 1.1738-.6406.4575-.1543.9678-.2314 1.5308-.2314.8037 0 1.4902.1426 2.0596.4268.5688.2852 1.0049.6631 1.3081 1.1367.3027.4727.4546.9971.4546 1.5723h-1.7163c0-.2783-.082-.5488-.2461-.8115-.1636-.2627-.4019-.4814-.7139-.6543-.3125-.1729-.6948-.2598-1.146-.2598-.4766 0-.8613.0732-1.1548.2178-.2939.1455-.5073.3301-.6406.5527-.1328.2227-.1992.457-.1992.7051 0 .1855.0322.3506.0977.4961.0645.1445.1807.2783.3477.3984.167.1211.4019.2344.7051.3389.3027.1055.6895.21 1.1597.3154.8223.1855 1.4995.4082 2.0317.668.5317.2598.9277.5781 1.1875.9551.2598.3779.3896.8359.3896 1.373 0 .4395-.0913.8418-.2734 1.207-.1826.3652-.4453.6777-.7891.9414-.3428.2627-.751.4668-1.2246.6123-.4727.1455-1.0034.2178-1.5908.2178-.8848 0-1.6328-.1582-2.2451-.4727-.6123-.3164-1.0762-.7246-1.3916-1.2246-.3154-.502-.4731-1.0303-.4731-1.5869h1.7256c.0244.4697.1606.8428.4082 1.1182.2471.2754.5503.4697.9092.584.3584.1152.7144.1719 1.0669.1719.4697 0 .8643-.0615 1.1826-.1855.3188-.123.5615-.293.7285-.5098s.2505-.4648.2505-.7422z" fill="#9aa0a6"/><path d="m291.4624 310.5184v1.8516h-13.1836v-1.8516zm-5.4844 0v17.0625h-2.2266v-17.0625z"/><path d="m293.6772 311.538c0-.3516.1074-.6484.3223-.8906s.5332-.3633.9551-.3633c.4141 0 .7324.1211.9551.3633s.334.5391.334.8906c0 .3359-.1113.623-.334.8613s-.541.3574-.9551.3574c-.4219 0-.7402-.1191-.9551-.3574s-.3223-.5254-.3223-.8613zm2.3438 3.3633v12.6797h-2.1797v-12.6797z"/><path d="m304.5757 326.0341c.5156 0 .9922-.1055 1.4297-.3164s.7969-.502 1.0781-.873.4414-.7949.4805-1.2715h2.0625c-.0391.75-.291 1.4473-.7559 2.0918s-1.0723 1.1641-1.8223 1.5586-1.5742.5918-2.4727.5918c-.9531 0-1.7832-.168-2.4902-.5039s-1.293-.7969-1.7578-1.3828-.8125-1.2598-1.043-2.0215-.3457-1.5684-.3457-2.4199v-.4922c0-.8516.1152-1.6582.3457-2.4199s.5781-1.4355 1.043-2.0215 1.0508-1.0469 1.7578-1.3828 1.5371-.5039 2.4902-.5039c.9922 0 1.8594.2012 2.6016.6035s1.3262.9492 1.752 1.6406.6582 1.4746.6973 2.3496h-2.0625c-.0391-.5234-.1855-.9961-.4395-1.418s-.5977-.7598-1.0312-1.0137-.9395-.3809-1.5176-.3809c-.6641 0-1.2207.1309-1.6699.3926s-.8047.6133-1.0664 1.0547-.4492.9297-.5625 1.4648-.1699 1.0801-.1699 1.6348v.4922c0 .5547.0547 1.1016.1641 1.6406s.2949 1.0273.5566 1.4648.6172.7871 1.0664 1.0488 1.0098.3926 1.6816.3926z"/><path d="m314.2437 309.5809v18h-2.1797v-18zm7.7461 5.3203-5.5312 5.918-3.0938 3.2109-.1758-2.3086 2.2148-2.6484 3.9375-4.1719h2.6484zm-1.9805 12.6797-4.5234-6.0469 1.125-1.9336 5.9531 7.9805z"/><path d="m329.2554 327.8153c-.8828 0-1.6816-.1504-2.3965-.4512s-1.3281-.7246-1.8398-1.2715-.9043-1.1953-1.1777-1.9453-.4102-1.5703-.4102-2.4609v-.4922c0-1.0312.1523-1.9512.457-2.7598s.7188-1.4941 1.2422-2.0566 1.1172-.9883 1.7812-1.2773 1.3516-.4336 2.0625-.4336c.9062 0 1.6895.1562 2.3496.4688s1.2012.748 1.623 1.3066.7344 1.2148.9375 1.9688.3047 1.5762.3047 2.4668v.9727h-9.4688v-1.7695h7.3008v-.1641c-.0312-.5625-.1465-1.1094-.3457-1.6406s-.5137-.9688-.9434-1.3125-1.0156-.5156-1.7578-.5156c-.4922 0-.9453.1035-1.3594.3105s-.7695.5137-1.0664.9199-.5273.9023-.6914 1.4883-.2461 1.2617-.2461 2.0273v.4922c0 .6016.084 1.166.252 1.6934s.4141.9902.7383 1.3887.7188.7109 1.1836.9375.9941.3398 1.5879.3398c.7656 0 1.4141-.1562 1.9453-.4688s.9961-.7305 1.3945-1.2539l1.3125 1.043c-.2734.4141-.6211.8086-1.043 1.1836s-.9395.6797-1.5527.9141-1.3379.3516-2.1738.3516z"/><path d="m342.0288 314.9012v1.6641h-6.8555v-1.6641zm-4.5352-3.082h2.168v12.6211c0 .4297.0664.7539.1992.9727s.3047.3633.5156.4336.4375.1055.6797.1055c.1797 0 .3691-.0176.5684-.0527s.3496-.0645.4512-.0879l.0117 1.7695c-.1719.0547-.3965.1074-.6738.1582s-.6113.0762-1.002.0762c-.5312 0-1.0195-.1055-1.4648-.3164s-.7988-.5645-1.0605-1.0605-.3926-1.166-.3926-2.0098v-12.6094z"/><path d="m351.9546 324.2177c0-.3125-.0684-.6035-.2051-.873s-.4141-.5156-.832-.7383-1.0449-.416-1.8809-.5801c-.7031-.1484-1.3379-.3242-1.9043-.5273s-1.0469-.4492-1.4414-.7383-.6973-.6289-.9082-1.0195-.3164-.8477-.3164-1.3711c0-.5.1113-.9727.334-1.418s.5391-.8398.9492-1.1836.9043-.6133 1.4824-.8086 1.2227-.293 1.9336-.293c1.0156 0 1.8828.1797 2.6016.5391s1.2695.8379 1.6523 1.4355.5742 1.2598.5742 1.9863h-2.168c0-.3516-.1035-.6934-.3105-1.0254s-.5078-.6074-.9023-.8262-.877-.3281-1.4473-.3281c-.6016 0-1.0879.0918-1.459.2754s-.6406.416-.8086.6973-.252.5781-.252.8906c0 .2344.041.4434.123.627s.2285.3516.4395.5039.5078.2949.8906.4277.8711.2656 1.4648.3984c1.0391.2344 1.8945.5156 2.5664.8438s1.1719.7305 1.5 1.207.4922 1.0547.4922 1.7344c0 .5547-.1152 1.0625-.3457 1.5234s-.5625.8574-.9961 1.1895-.9492.5898-1.5469.7734-1.2676.2754-2.0098.2754c-1.1172 0-2.0625-.1992-2.8359-.5977s-1.3594-.9141-1.7578-1.5469-.5977-1.3008-.5977-2.0039h2.1797c.0312.5938.2031 1.0645.5156 1.4121s.6953.5938 1.1484.7383.9023.2168 1.3477.2168c.5938 0 1.0918-.0781 1.4941-.2344s.709-.3711.9199-.6445.3164-.5859.3164-.9375z"/><path d="m366.064 318.1122 2.5547-1.8164c.4922-.3359.873-.6738 1.1426-1.0137s.4043-.8066.4043-1.4004c0-.4609-.1797-.8809-.5391-1.2598s-.8672-.5684-1.5234-.5684c-.4531 0-.8359.1055-1.1484.3164s-.5469.4902-.7031.8379-.2344.7285-.2344 1.1426c0 .3516.0859.7148.2578 1.0898s.4102.7656.7148 1.1719.6523.8359 1.043 1.2891l8.0742 9.6797h-2.6016l-6.6211-7.9219c-.5859-.6875-1.1094-1.3184-1.5703-1.8926s-.8223-1.1309-1.084-1.6699-.3926-1.0977-.3926-1.6758c0-.8906.1777-1.6426.5332-2.2559s.8535-1.0801 1.4941-1.4004 1.3906-.4805 2.25-.4805c.8359 0 1.5566.166 2.1621.498s1.0723.7695 1.4004 1.3125.4922 1.1387.4922 1.7871c0 .5469-.0977 1.0371-.293 1.4707s-.4668.8301-.8145 1.1895-.752.7109-1.2129 1.0547l-3.3867 2.5195c-.5625.4141-.9727.8086-1.2305 1.1836s-.4238.707-.498.9961-.1113.5195-.1113.6914c0 .5547.1211 1.0625.3633 1.5234s.6113.8301 1.1074 1.1074 1.1191.416 1.8691.416c.6562 0 1.2949-.1504 1.916-.4512s1.1777-.7305 1.6699-1.2891.8848-1.2266 1.1777-2.0039.4395-1.6387.4395-2.584h1.9453c0 .7734-.0742 1.5039-.2227 2.1914s-.377 1.3262-.6855 1.916-.7012 1.127-1.1777 1.6113c-.0703.0703-.125.1523-.1641.2461s-.0938.1758-.1641.2461c-.5859.6328-1.3066 1.1074-2.1621 1.4238s-1.7129.4746-2.5723.4746c-1.1328 0-2.1113-.207-2.9355-.6211s-1.459-.9844-1.9043-1.7109-.668-1.5586-.668-2.4961c0-.7188.1543-1.3516.4629-1.8984s.7344-1.0586 1.2773-1.5352 1.166-.957 1.8691-1.4414z"/><path d="m389.103 314.9012v1.6641h-6.8555v-1.6641zm-4.5352-3.082h2.168v12.6211c0 .4297.0664.7539.1992.9727s.3047.3633.5156.4336.4375.1055.6797.1055c.1797 0 .3691-.0176.5684-.0527s.3496-.0645.4512-.0879l.0117 1.7695c-.1719.0547-.3965.1074-.6738.1582s-.6113.0762-1.002.0762c-.5312 0-1.0195-.1055-1.4648-.3164s-.7988-.5645-1.0605-1.0605-.3926-1.166-.3926-2.0098v-12.6094z"/><path d="m390.8374 321.3817v-.2695c0-.9141.1328-1.7637.3984-2.5488s.6484-1.4688 1.1484-2.0508 1.1055-1.0352 1.8164-1.3594 1.5078-.4863 2.3906-.4863c.8906 0 1.6934.1621 2.4082.4863s1.3242.7773 1.8281 1.3594.8887 1.2656 1.1543 2.0508.3984 1.6348.3984 2.5488v.2695c0 .9141-.1328 1.7617-.3984 2.543s-.6504 1.4629-1.1543 2.0449-1.1094 1.0352-1.8164 1.3594-1.5059.4863-2.3965.4863-1.6914-.1621-2.4023-.4863-1.3184-.7773-1.8223-1.3594-.8887-1.2637-1.1543-2.0449-.3984-1.6289-.3984-2.543zm2.168-.2695v.2695c0 .6328.0742 1.2285.2227 1.7871s.373 1.0527.6738 1.4824.6777.7676 1.1309 1.0137.9805.3691 1.582.3691c.5938 0 1.1152-.123 1.5645-.3691s.8223-.584 1.1191-1.0137.5215-.9238.6738-1.4824.2285-1.1543.2285-1.7871v-.2695c0-.625-.0762-1.2168-.2285-1.7754s-.3789-1.0547-.6797-1.4883-.6758-.7754-1.125-1.0254-.9746-.375-1.5762-.375c-.5938 0-1.1152.125-1.5645.375s-.8242.5918-1.125 1.0254-.5254.9297-.6738 1.4883-.2227 1.1504-.2227 1.7754z"/><path d="m413.2671 321.9794.9023-.0234c0 .8438-.0879 1.623-.2637 2.3379s-.459 1.334-.8496 1.8574-.9023.9316-1.5352 1.2246-1.4023.4395-2.3086.4395c-.6172 0-1.1816-.0898-1.6934-.2695s-.9512-.457-1.3184-.832-.6504-.8633-.8496-1.4648-.2988-1.3242-.2988-2.168v-8.1797h2.168v8.2031c0 .5703.0645 1.041.1934 1.4121s.3047.6641.5273.8789.4727.3652.75.4512.5645.1289.8613.1289c.9219 0 1.6523-.1777 2.1914-.5332s.9277-.8359 1.166-1.4414.3574-1.2793.3574-2.0215zm-.4102 2.6719v-9.75h2.1797v12.6797h-2.0742z"/><path d="m420.4976 316.8934v10.6875h-2.168v-12.6797h2.1094zm3.9609-2.0625-.0117 2.0156c-.1797-.0391-.3496-.0645-.5098-.0762s-.3418-.0176-.5449-.0176c-.5 0-.9414.0781-1.3242.2344s-.707.375-.9727.6562-.4746.6152-.627 1.002-.252.8105-.2988 1.2715l-.6094.3516c0-.7656.0762-1.4844.2285-2.1562s.3887-1.2676.709-1.7871.7285-.9258 1.2246-1.2188 1.0879-.4395 1.7754-.4395c.1562 0 .3359.0176.5391.0527s.3438.0723.4219.1113z"/><path d="m433.8452 324.2177c0-.3125-.0684-.6035-.2051-.873s-.4141-.5156-.832-.7383-1.0449-.416-1.8809-.5801c-.7031-.1484-1.3379-.3242-1.9043-.5273s-1.0469-.4492-1.4414-.7383-.6973-.6289-.9082-1.0195-.3164-.8477-.3164-1.3711c0-.5.1113-.9727.334-1.418s.5391-.8398.9492-1.1836.9043-.6133 1.4824-.8086 1.2227-.293 1.9336-.293c1.0156 0 1.8828.1797 2.6016.5391s1.2695.8379 1.6523 1.4355.5742 1.2598.5742 1.9863h-2.168c0-.3516-.1035-.6934-.3105-1.0254s-.5078-.6074-.9023-.8262-.877-.3281-1.4473-.3281c-.6016 0-1.0879.0918-1.459.2754s-.6406.416-.8086.6973-.252.5781-.252.8906c0 .2344.041.4434.123.627s.2285.3516.4395.5039.5078.2949.8906.4277.8711.2656 1.4648.3984c1.0391.2344 1.8945.5156 2.5664.8438s1.1719.7305 1.5 1.207.4922 1.0547.4922 1.7344c0 .5547-.1152 1.0625-.3457 1.5234s-.5625.8574-.9961 1.1895-.9492.5898-1.5469.7734-1.2676.2754-2.0098.2754c-1.1172 0-2.0625-.1992-2.8359-.5977s-1.3594-.9141-1.7578-1.5469-.5977-1.3008-.5977-2.0039h2.1797c.0312.5938.2031 1.0645.5156 1.4121s.6953.5938 1.1484.7383.9023.2168 1.3477.2168c.5938 0 1.0918-.0781 1.4941-.2344s.709-.3711.9199-.6445.3164-.5859.3164-.9375z"/><path d="m238.7085 97.6708c0-.3154-.0479-.5952-.144-.8398-.0957-.2441-.2627-.4648-.501-.6631-.2378-.1978-.5654-.3862-.9834-.5659-.417-.1792-.9448-.3618-1.5815-.5474-.668-.1978-1.271-.4189-1.8091-.6631-.5381-.2446-.999-.5244-1.3823-.8398-.3838-.3154-.6772-.6772-.8813-1.0854s-.3062-.875-.3062-1.4009c0-.5254.1079-1.0112.3247-1.4565.2163-.4453.5273-.8335.9326-1.1646.4048-.3306.8887-.5889 1.4517-.7744.5625-.1855 1.1904-.2783 1.8833-.2783 1.0142 0 1.8755.1934 2.584.5801.708.3862 1.2476.8906 1.6187 1.5117.3711.6221.5566 1.2852.5566 1.9902h-1.7812c0-.5068-.1084-.957-.3247-1.3496-.2168-.3931-.5444-.7021-.9834-.9277-.4395-.2261-.9961-.3389-1.6699-.3389-.6372 0-1.1631.0962-1.5771.2876-.4146.1919-.7222.4517-.9229.7793-.2012.3281-.3018.7021-.3018 1.1226 0 .2847.0605.543.1807.7744.1211.2324.3096.4473.5664.645.2563.1982.584.3804.9834.5474.3984.167.8765.3281 1.4331.4824.7666.2168 1.4287.458 1.9854.7236.5566.2661 1.0161.5645 1.3774.8955.3623.3306.6309.7051.8076 1.1221.1758.418.2642.8896.2642 1.415 0 .5508-.1113 1.0483-.334 1.4937s-.5415.8257-.9556 1.1411c-.4146.3154-.9106.5581-1.4893.7285-.5781.1699-1.2231.2549-1.9341.2549-.625 0-1.2388-.0869-1.8413-.2598-.6035-.1729-1.1504-.4326-1.6426-.7793-.4912-.3462-.8843-.7744-1.1777-1.2852-.2939-.5098-.4409-1.1021-.4409-1.7764h1.7812c0 .4639.0894.8613.269 1.1924.1792.3306.4253.6045.7373.8208.3125.2168.668.3755 1.0674.478.3984.1016.8145.1528 1.2476.1528.6245 0 1.1533-.0864 1.5864-.2598.4326-.1729.7622-.4204.9883-.7422.2256-.3213.3384-.7017.3384-1.1411z"/><path d="m246.0874 91.0468v1.3174h-5.4272v-1.3174zm-3.5903-2.4399h1.7163v9.9917c0 .3403.0522.5972.1577.77.105.1733.2412.2876.4082.3433s.3462.0835.5381.0835c.1421 0 .2925-.0142.4497-.0415.1582-.0283.2769-.0513.3574-.0698l.0093 1.4009c-.1362.043-.314.085-.5337.125-.2192.0405-.4839.0605-.793.0605-.4209 0-.8071-.0835-1.1597-.2505s-.6323-.4468-.8394-.8394c-.2075-.3931-.311-.9233-.311-1.5913v-9.9824z"/><path d="m253.6704 94.9989.0186 1.2061h-1.7349c-.4888 0-.9248.0386-1.3081.1162-.3838.0771-.7051.1934-.9648.3477-.2598.1548-.458.3477-.5938.5801-.1362.2314-.2041.5024-.2041.8115 0 .3154.0708.603.2134.8628.1421.2598.3574.4653.6445.6167.2881.1519.6416.2275 1.0625.2275.5254 0 .9893-.1113 1.3916-.334.4019-.2227.7222-.4946.96-.8164.2383-.3213.3667-.6338.3853-.937l.7329.8257c-.0435.2598-.1611.5474-.3525.8628-.1919.3154-.4468.6167-.7656.9048-.3184.2871-.6953.5254-1.1318.7139-.4355.189-.9263.2832-1.4702.2832-.6807 0-1.2759-.1333-1.7856-.3989-.5107-.2656-.9062-.623-1.1875-1.0718-.2817-.4482-.4224-.9507-.4224-1.5073 0-.5381.105-1.0127.3154-1.4243.21-.4111.5132-.7544.9092-1.0293.3955-.2754.8721-.4839 1.4287-.6265.5566-.1421 1.1782-.2134 1.8647-.2134h1.9946zm-.2969 4.3696v-5.1675c0-.3955-.0786-.7407-.2368-1.0342-.1572-.2939-.394-.521-.7095-.6821-.3154-.1606-.7051-.2412-1.1689-.2412-.4331 0-.812.0742-1.1362.2227-.3252.1484-.5786.3433-.7607.5845-.1826.2412-.2739.501-.2739.7793h-1.7163c0-.3584.0928-.7144.2783-1.0669s.4531-.6724.8027-.9604c.3491-.2871.7695-.5161 1.2617-.6865.4912-.1699 1.04-.2549 1.6465-.2549.7295 0 1.3745.124 1.9346.3711.5596.2476.9985.6201 1.3174 1.1182.3184.4976.4775 1.1211.4775 1.8691v4.6758c0 .334.0293.6899.0879 1.0669.0591.3774.147.7021.2646.9741v.1484h-1.7905c-.0869-.1978-.1548-.4624-.2041-.793-.0498-.3311-.0742-.6387-.0742-.9233z"/><path d="m261.3462 91.0468v1.3174h-5.4272v-1.3174zm-3.5903-2.4399h1.7163v9.9917c0 .3403.0522.5972.1577.77.105.1733.2412.2876.4082.3433s.3462.0835.5381.0835c.1421 0 .2925-.0142.4497-.0415.1582-.0283.2769-.0513.3574-.0698l.0093 1.4009c-.1362.043-.314.085-.5337.125-.2192.0405-.4839.0605-.793.0605-.4209 0-.8071-.0835-1.1597-.2505s-.6323-.4468-.8394-.8394c-.2075-.3931-.311-.9233-.311-1.5913v-9.9824z"/><path d="m269.1797 96.6503.7144-.0186c0 .668-.0698 1.2852-.2085 1.8506-.1396.5664-.3638 1.0566-.6729 1.4707-.3096.4146-.7144.7373-1.2153.9697-.501.2314-1.1104.3477-1.8276.3477-.4888 0-.9355-.0713-1.3408-.2134-.4048-.1421-.7529-.3618-1.0435-.6587-.291-.2969-.5151-.6831-.6724-1.1597-.1582-.4761-.2368-1.0483-.2368-1.7163v-6.4756h1.7163v6.4941c0 .4517.0508.8242.1533 1.1182.1016.2935.2412.5254.417.6953.1768.1704.3745.2896.5938.3574.2197.0684.4468.1021.6821.1021.7295 0 1.3081-.1406 1.7349-.4224.4268-.2812.7344-.6616.9229-1.1406.189-.4795.2832-1.0127.2832-1.6006zm-.3247 2.1152v-7.7188h1.7256v10.0381h-1.6421z"/><path d="m276.707 101.2704c-.6992 0-1.3311-.1191-1.8975-.3574-.5654-.2378-1.0513-.5732-1.4561-1.0063-.4053-.4326-.7163-.9463-.9326-1.54-.2168-.5938-.3247-1.2432-.3247-1.9482v-.3896c0-.8164.1206-1.5444.3618-2.1851.2412-.6396.5688-1.1826.9834-1.6279.4141-.4453.8843-.7822 1.4102-1.0112.5254-.2285 1.0698-.3433 1.6328-.3433.7173 0 1.3374.124 1.8604.3711.5225.2476.9507.5923 1.2847 1.0342.334.4424.5811.9619.7422 1.5586.1606.5972.2412 1.248.2412 1.9531v.77h-7.4961v-1.4009h5.7798v-.1299c-.0249-.4453-.1162-.8779-.2734-1.2988-.1582-.4204-.4072-.7666-.7471-1.0391-.3403-.272-.8042-.4082-1.3916-.4082-.3896 0-.7485.082-1.0762.2461-.3281.1636-.6094.4067-.8442.728-.2354.3218-.4175.7144-.5474 1.1782s-.1948.999-.1948 1.605v.3896c0 .4766.0664.9233.1997 1.3403.1328.418.3276.7842.584 1.0996.2568.3154.5693.563.9375.7422.3677.1797.7866.269 1.2568.269.606 0 1.1191-.1235 1.54-.3711.4204-.2471.7886-.5781 1.104-.9927l1.0391.8257c-.2168.3281-.4917.6401-.8257.937s-.7437.5381-1.2295.7236c-.4854.1855-1.0591.2783-1.7207.2783z"/><path d="m285.583 96.1771v-.2134c0-.7236.105-1.3965.3154-2.0176.21-.6221.5132-1.1631.9092-1.624.3955-.4604.875-.8193 1.438-1.0762.5625-.2563 1.1934-.3848 1.8926-.3848.7051 0 1.3403.1284 1.9067.3848.5654.2568 1.0479.6157 1.4473 1.0762.3984.4609.7031 1.002.9136 1.624.21.6211.3154 1.2939.3154 2.0176v.2134c0 .7236-.1055 1.395-.3154 2.0132-.2104.6187-.5151 1.1582-.9136 1.6191-.3994.4604-.8784.8193-1.4385 1.0762-.5596.2563-1.1919.3848-1.897.3848s-1.3394-.1284-1.9019-.3848c-.563-.2568-1.0439-.6157-1.4424-1.0762-.3994-.4609-.7041-1.0005-.9141-1.6191-.2104-.6182-.3154-1.2896-.3154-2.0132zm1.7163-.2134v.2134c0 .501.0586.9727.1763 1.4146.1172.4424.2954.834.5332 1.1738.2383.3403.5366.6074.8955.8027.3584.1943.7759.292 1.2524.292.4697 0 .8828-.0977 1.2388-.292.3555-.1953.6504-.4624.8857-.8027.2349-.3398.4131-.7314.5332-1.1738.1211-.4419.1812-.9136.1812-1.4146v-.2134c0-.4946-.0601-.9634-.1812-1.4053-.1201-.4424-.2998-.835-.5381-1.1787-.2378-.3428-.5347-.6133-.8906-.8115-.3555-.1978-.7715-.2969-1.2476-.2969-.4702 0-.8828.0991-1.2388.2969-.3555.1982-.6523.4688-.8906.8115-.2378.3438-.416.7363-.5332 1.1787-.1177.4419-.1763.9106-.1763 1.4053z"/><path d="m300.9219 91.0468v1.3174h-5.4365v-1.3174zm-2.1338 10.0381h-1.7163v-11.0957c0-.7236.1313-1.3345.3945-1.832.2627-.498.6411-.8755 1.1362-1.1318.4946-.2568 1.082-.3853 1.7627-.3853.1978 0 .3975.0127.5981.0371.2012.0249.3975.062.5894.1113l-.0928 1.4009c-.1299-.0308-.2769-.0522-.4409-.0649-.1636-.0122-.3262-.0186-.4868-.0186-.3652 0-.6787.0728-.9419.2183-.2627.145-.4624.3569-.5981.6353-.1362.2783-.2041.6216-.2041 1.0298v11.0957z"/><path d="m308.3042 87.577v13.5078h-1.7905v-13.5078zm6.4014 12.0513v1.4565h-6.7539v-1.4565z"/><path d="m315.8501 88.3842c0-.2783.085-.5132.2549-.7051.1704-.1914.4224-.2876.7563-.2876.3276 0 .5796.0962.7563.2876.1758.1919.2642.4268.2642.7051 0 .2661-.0884.4932-.2642.6821-.1768.1885-.4287.2827-.7563.2827-.334 0-.5859-.0942-.7563-.2827-.1699-.189-.2549-.416-.2549-.6821zm1.8555 2.6626v10.0381h-1.7256v-10.0381z"/><path d="m319.8057 86.8348h1.7256v12.3018l-.1484 1.9482h-1.5771v-14.25zm8.5073 9.1475v.1948c0 .73-.0869 1.4058-.2598 2.0269-.1733.6221-.4268 1.1616-.7607 1.6191-.334.458-.7422.8135-1.2246 1.0669s-1.0361.3804-1.6606.3804c-.6372 0-1.1953-.1099-1.6748-.3291-.479-.2197-.8828-.5366-1.2104-.9512-.3281-.4141-.5894-.915-.7837-1.5029-.1953-.5874-.3296-1.249-.4038-1.9854v-.8535c.0742-.7422.2085-1.4067.4038-1.9946.1943-.5874.4556-1.0903.7837-1.5073.3276-.418.7295-.7363 1.2061-.9561.4761-.2192 1.0298-.3291 1.6606-.3291s1.1904.1221 1.6792.3662c.4883.2446.8984.5928 1.229 1.0439.3311.4517.583.9912.7563 1.6191.1729.6274.2598 1.3252.2598 2.0918zm-1.7256.1948v-.1948c0-.501-.0464-.9727-.1392-1.415-.0928-.4419-.2412-.8315-.4453-1.1689-.2041-.3369-.4731-.6025-.8071-.7979-.334-.1943-.7456-.292-1.2339-.292-.4331 0-.8086.0742-1.127.2227-.3188.1484-.5894.3477-.812.5986-.2227.25-.4038.5347-.5425.8535-.1396.3184-.2432.6479-.311.9878v2.2358c.0986.4331.2612.8486.4868 1.248.2261.3984.5293.7251.9092.9785.3809.2539.8521.3804 1.415.3804.4639 0 .8613-.0942 1.1924-.2827.3306-.189.5996-.4502.8066-.7842.2075-.334.3604-.7202.4595-1.1597.0986-.439.1484-.9092.1484-1.4102z"/><path d="m334.0034 101.2704c-.6992 0-1.3311-.1191-1.8975-.3574-.5654-.2378-1.0513-.5732-1.4561-1.0063-.4053-.4326-.7163-.9463-.9326-1.54-.2168-.5938-.3247-1.2432-.3247-1.9482v-.3896c0-.8164.1206-1.5444.3618-2.1851.2412-.6396.5688-1.1826.9834-1.6279.4141-.4453.8843-.7822 1.4102-1.0112.5254-.2285 1.0698-.3433 1.6328-.3433.7173 0 1.3374.124 1.8604.3711.5225.2476.9507.5923 1.2847 1.0342.334.4424.5811.9619.7422 1.5586.1606.5972.2412 1.248.2412 1.9531v.77h-7.4961v-1.4009h5.7798v-.1299c-.0249-.4453-.1162-.8779-.2734-1.2988-.1582-.4204-.4072-.7666-.7471-1.0391-.3403-.272-.8042-.4082-1.3916-.4082-.3896 0-.7485.082-1.0762.2461-.3281.1636-.6094.4067-.8442.728-.2354.3218-.4175.7144-.5474 1.1782s-.1948.999-.1948 1.605v.3896c0 .4766.0664.9233.1997 1.3403.1328.418.3276.7842.584 1.0996.2568.3154.5693.563.9375.7422.3677.1797.7866.269 1.2568.269.606 0 1.1191-.1235 1.54-.3711.4204-.2471.7886-.5781 1.104-.9927l1.0391.8257c-.2168.3281-.4917.6401-.8257.937s-.7437.5381-1.2295.7236c-.4854.1855-1.0591.2783-1.7207.2783z"/><path d="m340.9834 92.6239v8.4609h-1.7163v-10.0381h1.6699l.0464 1.5771zm3.1357-1.6328-.0093 1.5957c-.1426-.0308-.2769-.0508-.4038-.0605-.1265-.0088-.2705-.0137-.4312-.0137-.396 0-.7456.062-1.0483.1855-.3032.124-.5601.2969-.77.5195-.2104.2227-.3755.4873-.4966.793-.1201.3066-.1992.6421-.2363 1.0068l-.4824.2783c0-.606.0605-1.1748.1807-1.707.1211-.5317.3076-1.0034.5615-1.415.2534-.4111.5767-.7324.9697-.9648.3926-.2314.8608-.3477 1.4053-.3477.1235 0 .2656.0137.4268.042.1606.0273.272.0571.334.0879z"/><path d="m349.7261 91.0468v1.3174h-5.4272v-1.3174zm-3.5903-2.4399h1.7163v9.9917c0 .3403.0522.5972.1577.77.105.1733.2412.2876.4082.3433s.3462.0835.5381.0835c.1421 0 .2925-.0142.4497-.0415.1582-.0283.2769-.0513.3574-.0698l.0093 1.4009c-.1362.043-.314.085-.5337.125-.2192.0405-.4839.0605-.793.0605-.4209 0-.8071-.0835-1.1597-.2505s-.6323-.4468-.8394-.8394c-.2075-.3931-.311-.9233-.311-1.5913v-9.9824z"/><path d="m351.8633 91.0468 2.6069 7.793.4453 1.8091-1.2339.6309-3.6924-10.2329h1.874zm2.0503 8.999 2.7925-8.999h1.8369l-4.0264 11.5874c-.0928.2471-.2148.5151-.3662.8022-.1519.2881-.3452.5615-.5801.8213-.2354.2598-.5181.4717-.8486.6357-.3311.1636-.7256.2456-1.1831.2456-.1362 0-.3096-.0186-.5195-.0557-.2104-.0371-.3589-.0684-.4453-.0928l-.0093-1.3916c.0493.0059.1284.0142.2363.0229.1084.0098.1841.0142.2275.0142.3896 0 .7202-.0513.9927-.1528.272-.1025.5024-.2725.6909-.5107.189-.2378.3511-.5645.4873-.9785z"/><path d="m258.4219 158.3905-4.4604 12.9404h-2.6968l5.6191-14.9297h1.7227zm3.5171 7.4033v2.0405h-8.1211v-2.0405zm.2153 5.5371-4.4707-12.9404-.1948-1.9893h1.7329l5.6396 14.9297z" fill="#4285f4"/><path d="m268.9321 155.5809v15.75h-2.4814v-15.75z" fill="#4285f4"/><path d="m274.2847 155.5809v15.75h-2.4814v-15.75z" fill="#4285f4"/><path d="m225.4731 314.6151-4.2539 12.9658h-3.4268l5.8115-15.6406h2.1807zm3.3408 7.1436v2.5244h-8.2607v-2.5244zm.1934 5.8223-4.2646-12.9658-.3438-2.6748h2.2021l5.8438 15.6406z" fill="#3c4043"/><path d="m233.2183 321.9091v-.2256c0-.8877.1006-1.6953.3008-2.4229.2002-.7266.4941-1.3516.8809-1.874s.8633-.9277 1.4287-1.2139 1.21-.4297 1.9336-.4297c.6807 0 1.2764.1436 1.7891.4297.5117.2861.9482.6934 1.3105 1.2188.3613.5273.6533 1.1465.875 1.8594.2217.7119.3828 1.4912.4834 2.3359v.4941c-.1006.8096-.2617 1.5615-.4834 2.2559s-.5137 1.3018-.875 1.8203c-.3623.5195-.8008.9229-1.3164 1.209s-1.1172.4297-1.8047.4297c-.7236 0-1.3662-.1465-1.9277-.4404-.5625-.2939-1.0352-.7051-1.418-1.2354-.3838-.5303-.6758-1.1533-.876-1.8691s-.3008-1.4971-.3008-2.3418zm3.0938-.2256v.2256c0 .4795.0381.9277.1123 1.3428.0762.415.2012.7822.377 1.1006.1748.3193.4043.5664.6875.7422.2822.1748.6279.2627 1.0361.2627.5303 0 .9668-.1201 1.3105-.3604.3438-.2393.6064-.5703.79-.9932.1816-.4229.2881-.9092.3164-1.4609v-1.4072c-.0215-.4512-.084-.8574-.1875-1.2188-.1045-.3623-.2549-.6719-.4512-.9297-.1973-.2578-.4414-.458-.7305-.6016-.291-.1436-.6328-.2148-1.0264-.2148-.4014 0-.7451.0918-1.0312.2734-.2861.1836-.5176.4316-.6924.7471-.1758.3154-.3047.6855-.3867 1.1123-.083.4258-.124.8857-.124 1.3799zm4.2539 3.3623v-13.9648h3.1152v16.5h-2.8037z" fill="#3c4043"/><path d="m252.3716 324.369c0-.2217-.0645-.4229-.1934-.6016s-.3672-.3457-.7139-.499c-.3477-.1543-.8477-.2959-1.499-.4248-.5869-.1289-1.1338-.292-1.6377-.4893-.5059-.1963-.9424-.4346-1.3105-.7139-.3691-.2793-.6572-.6104-.8652-.9932-.208-.3838-.3115-.8223-.3115-1.3164 0-.4873.1055-.9453.3174-1.375.2109-.4297.5156-.8105.9121-1.1445.3984-.332.8848-.5938 1.4609-.7832.5771-.1904 1.2266-.2852 1.9502-.2852 1.0098 0 1.8779.1611 2.6045.4834.7275.3223 1.2861.7646 1.6758 1.3271.3906.5615.5859 1.2012.5859 1.917h-3.0938c0-.3008-.0625-.5713-.1875-.8115-.126-.2393-.3193-.4297-.5801-.5684-.2617-.1406-.6006-.21-1.0156-.21-.3438 0-.6406.0596-.8916.1768-.251.1191-.4424.2764-.5752.4727-.1318.1973-.1982.4141-.1982.6504 0 .1787.0381.3379.1123.4785.0762.1387.1992.2666.3711.3809s.3955.2207.6719.3164c.2754.0977.6172.1846 1.0254.2637.8379.1719 1.5859.3955 2.2451.6719.6592.2754 1.1816.6475 1.5684 1.1172.3867.4688.5801 1.083.5801 1.8418 0 .5156-.1143.9883-.3438 1.418s-.5586.8037-.9883 1.123c-.4297.3184-.9434.5654-1.542.7402-.5977.1758-1.2686.2637-2.0137.2637-1.0811 0-1.9961-.1934-2.7441-.5801-.749-.3867-1.3145-.8789-1.6973-1.4766-.3838-.5986-.5752-1.2129-.5752-1.8428h2.9326c.0146.4229.123.7627.3281 1.0205.2031.2578.4648.4443.7832.5586.3193.1143.665.1719 1.0371.1719.4014 0 .7344-.0557.999-.166.2646-.1113.4678-.2617.6064-.4512.1406-.1904.21-.4102.21-.6611z" fill="#3c4043"/></svg>